<?xml version="1.0" encoding="utf-8"?>
<!-- Generator: Adobe Illustrator 19.0.0, SVG Export Plug-In . SVG Version: 6.00 Build 0)  -->
<svg version="1.1" id="Layer_1" xmlns="http://www.w3.org/2000/svg" xmlns:xlink="http://www.w3.org/1999/xlink" x="0px" y="0px"
	 viewBox="50 -50 200 200" style="enable-background:new 50 -50 200 200;" xml:space="preserve">
<style type="text/css">
	.st0{fill:#3E92ED;}
	.st1{opacity:0.3;}
	.st2{fill:none;stroke:#FFFFFF;stroke-width:2;stroke-linecap:round;stroke-miterlimit:10;stroke-dasharray:3.0176,6.0351;}
	.st3{fill:#FFFFFF;}
</style>
<circle class="st0" cx="150" cy="50" r="98"/>
<g class="st1">
	<circle class="st2" cx="149.6" cy="50" r="89.3"/>
</g>
<g>
	<path class="st3" d="M100.8,60.7c0-1.5,0.2-2.8,0.6-4s0.9-2.2,1.6-3.2s1.5-1.8,2.5-2.6s2-1.5,3.1-2.1c-2.1-1.3-3.7-2.8-4.9-4.6
		c-1.2-1.7-1.8-3.9-1.8-6.4c0-1.7,0.3-3.2,0.9-4.7s1.5-2.7,2.7-3.8c1.2-1.1,2.6-1.9,4.3-2.5c1.7-0.6,3.5-0.9,5.6-0.9
		c1.9,0,3.7,0.3,5.2,0.8c1.6,0.5,2.9,1.2,4.1,2.2c1.1,0.9,2,2.1,2.6,3.4s0.9,2.8,0.9,4.4c0,2.5-0.6,4.7-1.7,6.4
		c-1.1,1.8-2.8,3.4-5,4.8c2.6,1.5,4.5,3.1,5.8,4.9s2,4.1,2,6.9c0,1.9-0.4,3.7-1.1,5.2s-1.7,2.9-3,4s-2.8,2-4.6,2.6s-3.8,0.9-5.9,0.9
		s-4.1-0.3-5.8-0.9s-3.2-1.4-4.4-2.4c-1.2-1-2.2-2.3-2.8-3.7C101.1,64.1,100.8,62.4,100.8,60.7z M121.4,59.8c0-1-0.2-1.9-0.7-2.7
		c-0.5-0.8-1.1-1.5-1.8-2.2c-0.7-0.7-1.6-1.3-2.5-1.8c-0.9-0.6-1.8-1.1-2.8-1.6c-2,1.2-3.4,2.4-4.1,3.7c-0.7,1.3-1.1,2.7-1.1,4
		c0,1.7,0.6,3.2,1.8,4.4c1.2,1.2,2.8,1.8,4.9,1.8c1.9,0,3.5-0.5,4.6-1.4C120.8,63.1,121.4,61.7,121.4,59.8z M109.8,37.9
		c0,1,0.2,1.9,0.6,2.7c0.4,0.8,0.9,1.4,1.6,2s1.4,1.1,2.2,1.6c0.8,0.5,1.7,0.9,2.6,1.4c2.6-2.2,3.8-4.6,3.8-7.2
		c0-1.8-0.5-3.1-1.6-4.1c-1-0.9-2.3-1.4-3.8-1.4c-1.9,0-3.3,0.5-4.1,1.5C110.2,35.4,109.8,36.6,109.8,37.9z"/>
	<path class="st3" d="M134.4,49.1c0-7.9,1.3-13.7,4-17.5s6.5-5.7,11.6-5.7c5.4,0,9.3,1.9,11.8,5.7c2.5,3.8,3.8,9.6,3.8,17.6
		c0,7.9-1.4,13.8-4.1,17.6s-6.6,5.8-11.6,5.8c-5.3,0-9.3-2-11.8-6C135.7,62.4,134.4,56.6,134.4,49.1z M142.7,49.1
		c0,5.2,0.6,9.2,1.7,12.1c1.1,2.8,3,4.3,5.6,4.3c2.5,0,4.4-1.3,5.5-3.9c1.2-2.6,1.8-6.7,1.8-12.4c0-5.2-0.6-9.2-1.7-12
		s-3-4.2-5.7-4.2c-2.6,0-4.4,1.3-5.5,4C143.3,39.6,142.7,43.6,142.7,49.1z"/>
	<path class="st3" d="M169.4,49.1c0-7.9,1.3-13.7,4-17.5s6.5-5.7,11.6-5.7c5.4,0,9.3,1.9,11.8,5.7c2.5,3.8,3.8,9.6,3.8,17.6
		c0,7.9-1.4,13.8-4.1,17.6c-2.7,3.8-6.6,5.8-11.6,5.8c-5.3,0-9.3-2-11.8-6C170.7,62.4,169.4,56.6,169.4,49.1z M177.7,49.1
		c0,5.2,0.6,9.2,1.7,12.1c1.1,2.8,3,4.3,5.6,4.3c2.5,0,4.4-1.3,5.5-3.9c1.2-2.6,1.8-6.7,1.8-12.4c0-5.2-0.6-9.2-1.7-12
		s-3-4.2-5.7-4.2c-2.6,0-4.4,1.3-5.5,4C178.3,39.6,177.7,43.6,177.7,49.1z"/>
</g>
</svg>
