<?xml version="1.0" encoding="utf-8"?>
<!-- Generator: Adobe Illustrator 20.1.0, SVG Export Plug-In . SVG Version: 6.00 Build 0)  -->
<svg version="1.1" id="Layer_1" xmlns="http://www.w3.org/2000/svg" xmlns:xlink="http://www.w3.org/1999/xlink" x="0px" y="0px"
	 viewBox="0 0 200 200" style="enable-background:new 0 0 200 200;" xml:space="preserve">
<style type="text/css">
	.st0{opacity:0.1;enable-background:new    ;}
	.st1{opacity:0.7;fill:#4F5766;}
	.st2{opacity:0.7;fill:#666D7C;}
	.st3{opacity:0.28;}
	.st4{fill:#FFFFFF;}
	.st5{opacity:0.7;}
	.st6{fill:none;stroke:#7F8999;stroke-width:1.9286;stroke-linecap:round;stroke-linejoin:round;stroke-dasharray:1.9233,5.77;}
	.st7{opacity:0.16;}
	.st8{fill:#4F5766;}
</style>
<g>
	<ellipse class="st0" cx="98.6" cy="190.7" rx="86.4" ry="5.3"/>
	<circle class="st1" cx="99.4" cy="95.5" r="93.5"/>
	<circle class="st2" cx="97.5" cy="98.6" r="92.1"/>
	<g class="st3">
		<path class="st4" d="M161.1,31.8l-134.9,125c2,2.4,4,4.7,6.2,6.8L167.5,38.5C165.5,36.1,163.3,33.9,161.1,31.8z"/>
		<path class="st4" d="M184.2,67.3c-2.6-7.2-6-14-10.3-20.3L40.4,170.7c5.9,4.7,12.4,8.7,19.4,11.8L184.2,67.3z"/>
		<path class="st4" d="M10.4,128.4c2.7,7.8,6.3,15,10.9,21.7L154.9,26.3c-6.3-5-13.3-9.2-20.8-12.5L10.4,128.4z"/>
	</g>
	<g class="st5">
		<circle class="st6" cx="97.2" cy="98.8" r="84.5"/>
	</g>
	<circle class="st1" cx="97.5" cy="98.4" r="77.1"/>
	<circle class="st2" cx="97.5" cy="98.4" r="73.7"/>
	<g class="st7">
		<path class="st4" d="M25.5,114.4c1.8,8.3,5.1,16.1,9.4,23L141.2,39c-6.6-4.9-14.1-8.7-22.2-11.2L25.5,114.4z"/>
		<path class="st4" d="M147.6,44.3L39.7,144.2c1.9,2.4,4,4.7,6.2,6.9L153.9,51C152,48.6,149.8,46.4,147.6,44.3z"/>
		<path class="st4" d="M169.2,81.2c-1.8-7.7-4.9-14.9-8.9-21.5L54.1,158c6.2,4.6,13.2,8.1,20.7,10.6L169.2,81.2z"/>
	</g>
	<path class="st4" d="M66.7,112.1c-0.9,12.5-2.8,14.2-14.7,15.2c11.9,1,13.8,2.7,14.7,15.2c0.9-12.5,2.8-14.2,14.7-15.2
		C69.4,126.3,67.6,124.6,66.7,112.1z"/>
	<path class="st4" d="M149.7,9.7c-1.5,20-4.4,22.8-23.5,24.3c19.1,1.5,22,4.3,23.5,24.3c1.5-20,4.4-22.8,23.5-24.3
		C154.1,32.5,151.2,29.7,149.7,9.7z"/>
</g>
<g>
	<g>
		<g>
			<g>
				<path class="st8" d="M129.9,96.4H119v14.8h10.9c3.8,0,7-3.3,7-7.4C136.9,99.7,133.8,96.4,129.9,96.4z M129.1,108h-6.2v-8.4h6.2
					c2.2,0,4,1.9,4,4.2S131.3,108,129.1,108z"/>
				<rect x="119" y="108.7" class="st8" width="3.3" height="14.6"/>
				<rect x="116.9" y="108" class="st8" width="7.7" height="3.2"/>
				<rect x="116.9" y="114.4" class="st8" width="15.3" height="3.2"/>
			</g>
			<g>
				<path class="st4" d="M130.6,95.7h-10.9v14.8h10.9c3.8,0,7-3.3,7-7.4S134.5,95.7,130.6,95.7z M129.8,107.3h-6.2v-8.4h6.2
					c2.2,0,4,1.9,4,4.2S132,107.3,129.8,107.3z"/>
				<rect x="119.8" y="108" class="st4" width="3.3" height="14.6"/>
				<rect x="117.6" y="107.3" class="st4" width="7.7" height="3.2"/>
				<rect x="117.6" y="113.7" class="st4" width="15.3" height="3.2"/>
			</g>
		</g>
	</g>
	<g>
		<g>
			<path class="st8" d="M107,91.8c2.1,0.8,3.7,2.1,4.8,3.8c1.1,1.7,1.7,5.7,1.7,11.9c0,4.6-0.4,8-1.3,10.1c-0.9,2.2-2.6,4-5.2,5.3
				c-2.6,1.4-6,2.1-10.3,2.1c-4.2,0-7.5-0.7-10-2s-4.2-3.1-5.3-5.3c-1.1-2.2-1.6-5.9-1.6-11c0-3.4,0.3-6.4,0.8-8.9s2.2-4.5,5-6.1
				c-1.8-0.8-3.1-2.2-3.9-4c-0.9-1.8-1.3-4.2-1.3-7c0-4.9,1.4-8.5,4.1-11c2.7-2.4,6.8-3.7,12.2-3.7c6.2,0,10.6,1.3,12.9,3.9
				c2.4,2.6,3.6,6.3,3.6,11.1c0,3.1-0.4,5.3-1.2,6.6C111,89.1,109.4,90.5,107,91.8z M99.3,103.2c0-2.2-0.2-3.6-0.7-4.3
				c-0.4-0.7-1.1-1.1-2.1-1.1c-0.9,0-1.6,0.3-2,1s-0.6,2.1-0.6,4.4v7.4c0,2.5,0.2,4,0.7,4.7s1.2,1.1,2.2,1.1s1.7-0.4,2-1.1
				s0.5-2.3,0.5-4.8V103.2z M99,79.6c0-1.9-0.2-3.2-0.5-3.8c-0.3-0.6-1-0.9-1.9-0.9s-1.6,0.3-1.9,1s-0.5,1.9-0.5,3.7v4.3
				c0,1.7,0.2,2.9,0.6,3.5c0.4,0.7,1,1,1.9,1s1.6-0.3,1.9-1c0.3-0.6,0.5-2,0.5-4L99,79.6L99,79.6z"/>
		</g>
	</g>
	<g>
		<path class="st4" d="M104.8,90.4c2.1,0.8,3.7,2.1,4.8,3.8c1.1,1.7,1.7,5.7,1.7,11.9c0,4.6-0.4,8-1.3,10.1c-0.9,2.2-2.6,4-5.2,5.3
			c-2.6,1.4-6,2.1-10.3,2.1c-4.2,0-7.5-0.7-10-2s-4.2-3.1-5.3-5.3c-1.1-2.2-1.6-5.9-1.6-11c0-3.4,0.3-6.4,0.8-8.9s2.2-4.5,5-6.1
			c-1.8-0.8-3.1-2.2-3.9-4c-0.9-1.8-1.3-4.2-1.3-7c0-4.9,1.4-8.5,4.1-11c2.7-2.4,6.8-3.7,12.2-3.7c6.2,0,10.6,1.3,12.9,3.9
			c2.4,2.6,3.6,6.3,3.6,11.1c0,3.1-0.4,5.3-1.2,6.6C108.8,87.8,107.2,89.1,104.8,90.4z M97.1,101.8c0-2.2-0.2-3.6-0.7-4.3
			c-0.4-0.7-1.1-1.1-2.1-1.1c-0.9,0-1.6,0.3-2,1s-0.6,2.1-0.6,4.4v7.4c0,2.5,0.2,4,0.7,4.7s1.2,1.1,2.2,1.1s1.7-0.4,2-1.1
			s0.5-2.3,0.5-4.8V101.8z M96.9,78.2c0-1.9-0.2-3.2-0.5-3.8c-0.3-0.6-1-0.9-1.9-0.9s-1.6,0.3-1.9,1S92,76.4,92,78.2v4.3
			c0,1.7,0.2,2.9,0.6,3.5c0.4,0.7,1,1,1.9,1s1.6-0.3,1.9-1c0.3-0.6,0.5-2,0.5-4V78.2z"/>
	</g>
</g>
</svg>
