<?xml version="1.0" encoding="utf-8"?>
<!-- Generator: Adobe Illustrator 19.0.0, SVG Export Plug-In . SVG Version: 6.00 Build 0)  -->
<svg version="1.1" id="Layer_1" xmlns="http://www.w3.org/2000/svg" xmlns:xlink="http://www.w3.org/1999/xlink" x="0px" y="0px"
	 viewBox="50 -50 200 200" style="enable-background:new 50 -50 200 200;" xml:space="preserve">
<style type="text/css">
	.st0{opacity:0.1;enable-background:new    ;}
	.st1{fill:#D31845;}
	.st2{fill:#EA285F;}
	.st3{opacity:0.28;}
	.st4{fill:#FFFFFF;}
	.st5{fill:none;stroke:#F7578C;stroke-width:1.9286;stroke-linecap:round;stroke-linejoin:round;stroke-dasharray:1.9301,5.7904;}
	.st6{fill:#B71140;}
	.st7{opacity:0.16;}
</style>
<ellipse id="XMLID_14_" class="st0" cx="149.9" cy="140.9" rx="85.5" ry="5.2"/>
<circle id="XMLID_13_" class="st1" cx="150.7" cy="46.7" r="92.5"/>
<circle id="XMLID_12_" class="st2" cx="148.8" cy="49.8" r="91.1"/>
<g class="st3">
	<path id="XMLID_11_" class="st4" d="M211.7-16.3L78.3,107.3c1.9,2.4,4,4.6,6.1,6.8L218-9.7C216-12,213.9-14.2,211.7-16.3z"/>
	<path id="XMLID_10_" class="st4" d="M234.6,18.8c-2.6-7.1-6-13.9-10.1-20L92.3,121.1c5.9,4.6,12.3,8.6,19.2,11.7L234.6,18.8z"/>
	<path id="XMLID_9_" class="st4" d="M62.6,79.2c2.6,7.7,6.3,14.9,10.7,21.5L205.5-21.7c-6.2-5-13.1-9.1-20.6-12.4L62.6,79.2z"/>
</g>
<g id="XMLID_8_">
	<circle id="XMLID_22_" class="st5" cx="148.5" cy="50" r="83.6"/>
</g>
<circle id="XMLID_7_" class="st6" cx="148.8" cy="49.6" r="76.3"/>
<circle id="XMLID_6_" class="st1" cx="148.8" cy="49.6" r="72.9"/>
<g class="st7">
	<path id="XMLID_5_" class="st4" d="M77.6,65.4c1.8,8.2,5,15.9,9.3,22.8L192-9.2c-6.6-4.8-14-8.6-22-11L77.6,65.4z"/>
	<path id="XMLID_4_" class="st4" d="M198.3-3.9L91.7,94.9c1.9,2.4,3.9,4.7,6.1,6.8l106.9-99C202.7,0.4,200.6-1.8,198.3-3.9z"/>
	<path id="XMLID_3_" class="st4" d="M219.7,32.6c-1.8-7.6-4.8-14.8-8.8-21.3l-105,97.2c6.2,4.5,13.1,8.1,20.5,10.4L219.7,32.6z"/>
</g>
<path id="XMLID_2_" class="st4" d="M118.3,63.1c-0.9,12.4-2.7,14.1-14.5,15c11.8,1,13.6,2.7,14.5,15c0.9-12.4,2.7-14.1,14.5-15
	C121,77.2,119.2,75.5,118.3,63.1z"/>
<path id="XMLID_1_" class="st4" d="M200.5-40.2c-1.4,19.8-4.4,22.5-23.2,24.1c18.9,1.5,21.8,4.3,23.2,24.1
	c1.4-19.8,4.4-22.5,23.2-24.1C204.8-17.7,201.9-20.4,200.5-40.2z"/>
<g>
	<g>
		<g>
			<path class="st6" d="M204.9,47.2H197V58h7.9c2.8,0,5.1-2.4,5.1-5.4S207.7,47.2,204.9,47.2z M204.3,55.7h-4.5v-6.1h4.5
				c1.6,0,2.9,1.4,2.9,3.1C207.2,54.3,205.9,55.7,204.3,55.7z"/>
			<rect x="197" y="56.1" class="st6" width="2.4" height="10.6"/>
			<rect x="195.4" y="55.7" class="st6" width="5.6" height="2.3"/>
			<rect x="195.4" y="60.3" class="st6" width="11.1" height="2.3"/>
		</g>
		<g>
			<path class="st4" d="M205.4,46.7h-7.9v10.7h7.9c2.8,0,5.1-2.4,5.1-5.4C210.5,49.1,208.2,46.7,205.4,46.7z M204.8,55.1h-4.5V49
				h4.5c1.6,0,2.9,1.4,2.9,3.1S206.4,55.1,204.8,55.1z"/>
			<rect x="197.5" y="55.6" class="st4" width="2.4" height="10.6"/>
			<rect x="196" y="55.1" class="st4" width="5.6" height="2.3"/>
			<rect x="196" y="59.8" class="st4" width="11.1" height="2.3"/>
		</g>
	</g>
	<g>
		<path class="st6" d="M104.9,32.3v32h-8V47.1c0-2.5-0.1-4-0.2-4.5c-0.1-0.5-0.4-0.9-1-1.1c-0.5-0.3-1.7-0.4-3.6-0.4h-0.8v-3.7
			c3.9-0.8,6.8-2.5,8.8-5.1H104.9z"/>
		<path class="st6" d="M125.4,32.3v5.1h-9.9v5.4c1.2-1.5,2.8-2.2,4.8-2.2c2.2,0,3.9,0.6,5,1.9c1.1,1.2,1.7,3.6,1.7,7.1v4.6
			c0,2.3-0.1,3.9-0.3,5c-0.2,1.1-0.7,2-1.4,2.9c-0.7,0.9-1.7,1.6-3,2.1s-2.8,0.7-4.7,0.7c-2.1,0-3.9-0.4-5.4-1.1
			c-1.6-0.7-2.7-1.8-3.3-3.2c-0.7-1.4-1-3.6-1-6.6v-1.7h8v2c0,2.1,0.1,3.5,0.2,4.4s0.6,1.3,1.5,1.3c0.4,0,0.7-0.1,1-0.4
			s0.4-0.5,0.4-0.8s0-1.6,0.1-3.8v-6.4c0-1.2-0.1-2-0.4-2.5c-0.3-0.4-0.7-0.7-1.2-0.7c-0.4,0-0.7,0.1-0.9,0.3
			c-0.3,0.2-0.4,0.5-0.5,0.7c-0.1,0.3-0.1,0.9-0.1,1.8h-7.9l0.3-16.2h17V32.3z"/>
		<path class="st6" d="M148.6,43.1v10.7c0,2.4-0.1,4.2-0.4,5.3s-0.8,2.1-1.6,3.1c-0.8,1-1.8,1.7-3,2.1c-1.2,0.4-2.5,0.6-3.9,0.6
			c-1.9,0-3.5-0.2-4.8-0.7c-1.3-0.4-2.3-1.1-3-2.1c-0.8-0.9-1.3-1.9-1.6-3c-0.3-1-0.5-2.7-0.5-4.9V43.1c0-2.9,0.3-5.1,0.8-6.6
			s1.5-2.6,3-3.5s3.3-1.3,5.5-1.3c1.8,0,3.3,0.3,4.7,0.9s2.4,1.4,3.1,2.2c0.7,0.9,1.2,1.9,1.4,3C148.5,38.9,148.6,40.7,148.6,43.1z
			 M140.6,40.4c0-1.7-0.1-2.8-0.2-3.2c-0.1-0.4-0.6-0.6-1.2-0.6c-0.6,0-1,0.2-1.2,0.7c-0.2,0.5-0.3,1.5-0.3,3.2v15.6
			c0,1.9,0.1,3,0.3,3.4c0.2,0.4,0.6,0.6,1.2,0.6c0.6,0,1-0.2,1.2-0.7c0.2-0.5,0.3-1.5,0.3-3v-16H140.6z"/>
		<path class="st6" d="M170.3,43.1v10.7c0,2.4-0.1,4.2-0.4,5.3c-0.3,1.1-0.8,2.1-1.6,3.1s-1.8,1.7-3,2.1s-2.5,0.6-3.9,0.6
			c-1.9,0-3.5-0.2-4.8-0.7c-1.3-0.4-2.3-1.1-3-2.1c-0.8-0.9-1.3-1.9-1.6-3c-0.3-1-0.5-2.7-0.5-4.9V43.1c0-2.9,0.3-5.1,0.8-6.6
			s1.5-2.6,3-3.5s3.3-1.3,5.5-1.3c1.8,0,3.3,0.3,4.7,0.9s2.4,1.4,3.1,2.2c0.7,0.9,1.2,1.9,1.4,3C170.2,38.9,170.3,40.7,170.3,43.1z
			 M162.3,40.4c0-1.7-0.1-2.8-0.2-3.2s-0.6-0.6-1.2-0.6s-1,0.2-1.2,0.7s-0.3,1.5-0.3,3.2v15.6c0,1.9,0.1,3,0.3,3.4
			c0.2,0.4,0.6,0.6,1.2,0.6s1-0.2,1.2-0.7s0.3-1.5,0.3-3v-16H162.3z"/>
		<path class="st6" d="M192.1,43.1v10.7c0,2.4-0.1,4.2-0.4,5.3s-0.8,2.1-1.6,3.1s-1.8,1.7-3,2.1s-2.5,0.6-3.9,0.6
			c-1.9,0-3.5-0.2-4.8-0.7c-1.3-0.4-2.3-1.1-3-2.1c-0.8-0.9-1.3-1.9-1.6-3c-0.3-1-0.5-2.7-0.5-4.9V43.1c0-2.9,0.3-5.1,0.8-6.6
			s1.5-2.6,3-3.5s3.3-1.3,5.5-1.3c1.8,0,3.3,0.3,4.7,0.9s2.4,1.4,3.1,2.2c0.7,0.9,1.2,1.9,1.4,3C191.9,38.9,192.1,40.7,192.1,43.1z
			 M184.1,40.4c0-1.7-0.1-2.8-0.2-3.2s-0.6-0.6-1.2-0.6c-0.6,0-1,0.2-1.2,0.7s-0.3,1.5-0.3,3.2v15.6c0,1.9,0.1,3,0.3,3.4
			s0.6,0.6,1.2,0.6s1-0.2,1.2-0.7s0.3-1.5,0.3-3v-16H184.1z"/>
	</g>
	<g>
		<path class="st4" d="M103.7,31.5v32h-8V46.4c0-2.5-0.1-4-0.2-4.5c-0.1-0.5-0.4-0.9-1-1.1c-0.5-0.3-1.7-0.4-3.6-0.4h-0.8v-3.7
			c3.9-0.8,6.8-2.5,8.8-5.1h4.8V31.5z"/>
		<path class="st4" d="M124.2,31.5v5.1h-9.9V42c1.2-1.5,2.8-2.2,4.8-2.2c2.2,0,3.9,0.6,5,1.9c1.1,1.2,1.7,3.6,1.7,7.1v4.6
			c0,2.3-0.1,3.9-0.3,5c-0.2,1.1-0.7,2-1.4,2.9c-0.7,0.9-1.7,1.6-3,2.1s-2.8,0.7-4.7,0.7c-2.1,0-3.9-0.4-5.4-1.1
			c-1.6-0.7-2.7-1.8-3.3-3.2c-0.7-1.4-1-3.6-1-6.6v-1.7h8v2c0,2.1,0.1,3.5,0.2,4.4s0.6,1.3,1.5,1.3c0.4,0,0.7-0.1,1-0.4
			s0.4-0.5,0.4-0.8s0-1.6,0.1-3.8v-6.4c0-1.2-0.1-2-0.4-2.5c-0.3-0.4-0.7-0.7-1.2-0.7c-0.4,0-0.7,0.1-0.9,0.3
			c-0.3,0.2-0.4,0.5-0.5,0.7c-0.1,0.3-0.1,0.9-0.1,1.8h-7.9l0.3-16.2h17V31.5z"/>
		<path class="st4" d="M147.4,42.3V53c0,2.4-0.1,4.2-0.4,5.3s-0.8,2.1-1.6,3.1c-0.8,1-1.8,1.7-3,2.1c-1.2,0.4-2.5,0.6-3.9,0.6
			c-1.9,0-3.5-0.2-4.8-0.7c-1.3-0.4-2.3-1.1-3-2.1c-0.8-0.9-1.3-1.9-1.6-3c-0.3-1-0.5-2.7-0.5-4.9V42.3c0-2.9,0.3-5.1,0.8-6.6
			s1.5-2.6,3-3.5s3.3-1.3,5.5-1.3c1.8,0,3.3,0.3,4.7,0.9s2.4,1.4,3.1,2.2c0.7,0.9,1.2,1.9,1.4,3C147.3,38.2,147.4,39.9,147.4,42.3z
			 M139.4,39.7c0-1.7-0.1-2.8-0.2-3.2c-0.1-0.4-0.6-0.6-1.2-0.6c-0.6,0-1,0.2-1.2,0.7c-0.2,0.5-0.3,1.5-0.3,3.2v15.6
			c0,1.9,0.1,3,0.3,3.4c0.2,0.4,0.6,0.6,1.2,0.6c0.6,0,1-0.2,1.2-0.7c0.2-0.5,0.3-1.5,0.3-3v-16H139.4z"/>
		<path class="st4" d="M169.1,42.3V53c0,2.4-0.1,4.2-0.4,5.3s-0.8,2.1-1.6,3.1c-0.8,1-1.8,1.7-3,2.1c-1.2,0.4-2.5,0.6-3.9,0.6
			c-1.9,0-3.5-0.2-4.8-0.7c-1.3-0.4-2.3-1.1-3-2.1c-0.8-0.9-1.3-1.9-1.6-3c-0.3-1-0.5-2.7-0.5-4.9V42.3c0-2.9,0.3-5.1,0.8-6.6
			s1.5-2.6,3-3.5s3.3-1.3,5.5-1.3c1.8,0,3.3,0.3,4.7,0.9s2.4,1.4,3.1,2.2c0.7,0.9,1.2,1.9,1.4,3C169,38.2,169.1,39.9,169.1,42.3z
			 M161.1,39.7c0-1.7-0.1-2.8-0.2-3.2c-0.1-0.4-0.6-0.6-1.2-0.6c-0.6,0-1,0.2-1.2,0.7c-0.2,0.5-0.3,1.5-0.3,3.2v15.6
			c0,1.9,0.1,3,0.3,3.4c0.2,0.4,0.6,0.6,1.2,0.6c0.6,0,1-0.2,1.2-0.7c0.2-0.5,0.3-1.5,0.3-3v-16H161.1z"/>
		<path class="st4" d="M190.8,42.3V53c0,2.4-0.1,4.2-0.4,5.3s-0.8,2.1-1.6,3.1s-1.8,1.7-3,2.1s-2.5,0.6-3.9,0.6
			c-1.9,0-3.5-0.2-4.8-0.7c-1.3-0.4-2.3-1.1-3-2.1c-0.8-0.9-1.3-1.9-1.6-3c-0.3-1-0.5-2.7-0.5-4.9V42.3c0-2.9,0.3-5.1,0.8-6.6
			s1.5-2.6,3-3.5s3.3-1.3,5.5-1.3c1.8,0,3.3,0.3,4.7,0.9s2.4,1.4,3.1,2.2c0.7,0.9,1.2,1.9,1.4,3C190.7,38.2,190.8,39.9,190.8,42.3z
			 M182.8,39.7c0-1.7-0.1-2.8-0.2-3.2s-0.6-0.6-1.2-0.6c-0.6,0-1,0.2-1.2,0.7S180,38,180,39.7v15.6c0,1.9,0.1,3,0.3,3.4
			s0.6,0.6,1.2,0.6s1-0.2,1.2-0.7s0.3-1.5,0.3-3V39.7H182.8z"/>
	</g>
</g>
</svg>
