<?xml version="1.0" encoding="utf-8"?>
<!-- Generator: Adobe Illustrator 19.0.0, SVG Export Plug-In . SVG Version: 6.00 Build 0)  -->
<svg version="1.1" id="Layer_1" xmlns="http://www.w3.org/2000/svg" xmlns:xlink="http://www.w3.org/1999/xlink" x="0px" y="0px"
	 viewBox="50 -50 200 200" style="enable-background:new 50 -50 200 200;" xml:space="preserve">
<style type="text/css">
	.st0{fill:#3E92ED;}
	.st1{opacity:0.3;}
	.st2{fill:none;stroke:#FFFFFF;stroke-width:2;stroke-linecap:round;stroke-miterlimit:10;stroke-dasharray:3.0176,6.0351;}
	.st3{fill:#FFFFFF;}
</style>
<circle class="st0" cx="150" cy="48" r="98"/>
<g class="st1">
	<circle class="st2" cx="149.6" cy="48" r="89.3"/>
</g>
<g>
	<path class="st3" d="M130.1,55.7c0,2.1-0.4,4-1.1,5.8s-1.7,3.4-3,4.7s-2.8,2.4-4.6,3.1c-1.8,0.8-3.8,1.2-6,1.2s-4.3-0.4-6.1-1.1
		c-1.9-0.7-3.5-1.8-4.8-3.2c-1.4-1.4-2.4-3.2-3.2-5.3c-0.8-2.1-1.2-4.6-1.2-7.4c0-4.2,0.6-8,1.8-11.5c1.2-3.4,2.9-6.4,4.9-8.9
		c2.1-2.5,4.5-4.6,7.2-6.1c2.8-1.6,5.7-2.6,8.7-3.1l1.9,6.6c-2.1,0.3-4.1,1-5.9,2s-3.4,2.2-4.8,3.5c-1.4,1.4-2.6,2.9-3.5,4.6
		c-1,1.7-1.6,3.4-2,5.2c0.9-1.1,2-2,3.3-2.7c1.4-0.7,3.1-1.1,5.1-1.1c1.9,0,3.7,0.3,5.3,0.9c1.6,0.6,3,1.5,4.2,2.7s2,2.6,2.7,4.3
		C129.8,51.5,130.1,53.5,130.1,55.7z M122.1,56.2c0-4.8-2.3-7.2-7-7.2c-1.7,0-3.1,0.4-4.3,1.2c-1.2,0.8-2,1.7-2.5,2.7
		c-0.1,0.5-0.1,0.9-0.1,1.2s0,0.7,0,1c0,1,0.1,2,0.4,3s0.7,1.9,1.3,2.7c0.6,0.8,1.3,1.4,2.2,1.9s2,0.7,3.2,0.7c2,0,3.6-0.7,4.9-2
		C121.4,60,122.1,58.3,122.1,56.2z"/>
	<path class="st3" d="M134.4,47.1c0-7.9,1.3-13.7,4-17.5s6.5-5.7,11.6-5.7c5.4,0,9.3,1.9,11.8,5.7c2.5,3.8,3.8,9.6,3.8,17.6
		c0,7.9-1.4,13.8-4.1,17.6s-6.6,5.8-11.6,5.8c-5.3,0-9.3-2-11.8-6C135.7,60.4,134.4,54.6,134.4,47.1z M142.7,47.1
		c0,5.2,0.6,9.2,1.7,12.1c1.1,2.8,3,4.3,5.6,4.3c2.5,0,4.4-1.3,5.5-3.9c1.2-2.6,1.8-6.7,1.8-12.4c0-5.2-0.6-9.2-1.7-12
		s-3-4.2-5.7-4.2c-2.6,0-4.4,1.3-5.5,4C143.3,37.6,142.7,41.6,142.7,47.1z"/>
	<path class="st3" d="M169.4,47.1c0-7.9,1.3-13.7,4-17.5s6.5-5.7,11.6-5.7c5.4,0,9.3,1.9,11.8,5.7c2.5,3.8,3.8,9.6,3.8,17.6
		c0,7.9-1.4,13.8-4.1,17.6c-2.7,3.8-6.6,5.8-11.6,5.8c-5.3,0-9.3-2-11.8-6C170.7,60.4,169.4,54.6,169.4,47.1z M177.7,47.1
		c0,5.2,0.6,9.2,1.7,12.1c1.1,2.8,3,4.3,5.6,4.3c2.5,0,4.4-1.3,5.5-3.9c1.2-2.6,1.8-6.7,1.8-12.4c0-5.2-0.6-9.2-1.7-12
		s-3-4.2-5.7-4.2c-2.6,0-4.4,1.3-5.5,4C178.3,37.6,177.7,41.6,177.7,47.1z"/>
</g>
</svg>
