<?xml version="1.0" encoding="utf-8"?>
<!-- Generator: Adobe Illustrator 19.0.0, SVG Export Plug-In . SVG Version: 6.00 Build 0)  -->
<svg version="1.1" id="Layer_1" xmlns="http://www.w3.org/2000/svg" xmlns:xlink="http://www.w3.org/1999/xlink" x="0px" y="0px"
	 viewBox="50 -50 200 200" style="enable-background:new 50 -50 200 200;" xml:space="preserve">
<style type="text/css">
	.st0{fill:#3E92ED;}
	.st1{opacity:0.3;}
	.st2{fill:none;stroke:#FFFFFF;stroke-width:2;stroke-linecap:round;stroke-miterlimit:10;stroke-dasharray:3.0176,6.0351;}
	.st3{fill:#FFFFFF;}
</style>
<circle class="st0" cx="150" cy="50" r="98"/>
<g class="st1">
	<circle class="st2" cx="149.6" cy="50" r="89.3"/>
</g>
<g>
	<path class="st3" d="M132.2,59.1h-7v12.5h-7.7V59.1H98.1v-4.7l20.3-27.9h6.8v26h7L132.2,59.1L132.2,59.1z M117.5,42.7l0.6-5.4h-0.3
		l-2.2,4.6l-6.7,8.6l-3.2,2.4l4.1-0.5h7.6v-9.7H117.5z"/>
	<path class="st3" d="M134.4,49.1c0-7.9,1.3-13.7,4-17.5s6.5-5.7,11.6-5.7c5.4,0,9.3,1.9,11.8,5.7c2.5,3.8,3.8,9.6,3.8,17.6
		c0,7.9-1.4,13.8-4.1,17.6s-6.6,5.8-11.6,5.8c-5.3,0-9.3-2-11.8-6C135.7,62.4,134.4,56.6,134.4,49.1z M142.7,49.1
		c0,5.2,0.6,9.2,1.7,12.1c1.1,2.8,3,4.3,5.6,4.3c2.5,0,4.4-1.3,5.5-3.9c1.2-2.6,1.8-6.7,1.8-12.4c0-5.2-0.6-9.2-1.7-12
		s-3-4.2-5.7-4.2c-2.6,0-4.4,1.3-5.5,4C143.3,39.6,142.7,43.6,142.7,49.1z"/>
	<path class="st3" d="M169.4,49.1c0-7.9,1.3-13.7,4-17.5s6.5-5.7,11.6-5.7c5.4,0,9.3,1.9,11.8,5.7c2.5,3.8,3.8,9.6,3.8,17.6
		c0,7.9-1.4,13.8-4.1,17.6c-2.7,3.8-6.6,5.8-11.6,5.8c-5.3,0-9.3-2-11.8-6C170.7,62.4,169.4,56.6,169.4,49.1z M177.7,49.1
		c0,5.2,0.6,9.2,1.7,12.1c1.1,2.8,3,4.3,5.6,4.3c2.5,0,4.4-1.3,5.5-3.9c1.2-2.6,1.8-6.7,1.8-12.4c0-5.2-0.6-9.2-1.7-12
		s-3-4.2-5.7-4.2c-2.6,0-4.4,1.3-5.5,4C178.3,39.6,177.7,43.6,177.7,49.1z"/>
</g>
</svg>
