<?xml version="1.0" encoding="utf-8"?>
<!-- Generator: Adobe Illustrator 19.0.0, SVG Export Plug-In . SVG Version: 6.00 Build 0)  -->
<svg version="1.1" id="Layer_1" xmlns="http://www.w3.org/2000/svg" xmlns:xlink="http://www.w3.org/1999/xlink" x="0px" y="0px"
	 viewBox="-399 401 200 200" style="enable-background:new -399 401 200 200;" xml:space="preserve">
<style type="text/css">
	.st0{fill:#9E9C90;}
	.st1{fill:#E0D8C7;}
	.st2{fill:#7F7D73;}
	.st3{fill:#EFEAE1;}
	.st4{fill:#7CA7D3;}
	.st5{opacity:0.3;}
	.st6{fill:none;stroke:#FFFFFF;stroke-width:2;stroke-linecap:round;stroke-miterlimit:10;stroke-dasharray:3.0176,6.0351;}
	.st7{fill:#FFFFFF;}
</style>
<g>
	<g>
		<g>
			<g>
				<path class="st0" d="M-278.1,496.4H-289v14.8h10.9c3.8,0,7-3.3,7-7.4C-271.1,499.7-274.2,496.4-278.1,496.4z M-278.9,508h-6.2
					v-8.4h6.2c2.2,0,4,1.9,4,4.2S-276.7,508-278.9,508z"/>
				<rect x="-289" y="508.7" class="st0" width="3.3" height="14.6"/>
				<rect x="-291.1" y="508" class="st0" width="7.7" height="3.2"/>
				<rect x="-291.1" y="514.4" class="st0" width="15.3" height="3.2"/>
			</g>
			<g>
				<path class="st1" d="M-277.4,495.7h-10.9v14.8h10.9c3.8,0,7-3.3,7-7.4S-273.5,495.7-277.4,495.7z M-278.2,507.3h-6.2v-8.4h6.2
					c2.2,0,4,1.9,4,4.2C-274.2,505.4-276,507.3-278.2,507.3z"/>
				<rect x="-288.2" y="508" class="st1" width="3.3" height="14.6"/>
				<rect x="-290.4" y="507.3" class="st1" width="7.7" height="3.2"/>
				<rect x="-290.4" y="513.7" class="st1" width="15.3" height="3.2"/>
			</g>
		</g>
	</g>
	<g>
		<g>
			<path class="st2" d="M-297.2,467.2V524h-14.2v-30.4c0-4.4-0.1-7-0.3-7.9c-0.2-0.9-0.8-1.6-1.7-2c-0.9-0.5-3.1-0.7-6.3-0.7h-1.4
				v-6.6c6.8-1.5,12-4.5,15.6-9.1L-297.2,467.2L-297.2,467.2z"/>
		</g>
	</g>
	<g>
		<path class="st3" d="M-299.4,465.9v56.7h-14.1v-30.4c0-4.4-0.1-7-0.3-7.9c-0.2-0.9-0.8-1.6-1.7-2c-0.9-0.5-3.1-0.7-6.3-0.7h-1.4
			V475c6.8-1.5,12-4.5,15.6-9.1H-299.4z"/>
	</g>
</g>
<circle class="st4" cx="-299" cy="501" r="98"/>
<g class="st5">
	<circle class="st6" cx="-299.4" cy="501" r="89.3"/>
</g>
<g>
	<path class="st7" d="M-327.5,515.6h8.9v-25.3l1-4.4l-3.1,3.8l-5.7,3.9l-3.5-4.8l14.6-11.8h4.7v38.5h8.7v7h-25.5V515.6z"/>
	<path class="st7" d="M-297.7,500.1c0-7.9,1.3-13.7,4-17.5c2.7-3.8,6.5-5.7,11.6-5.7c5.4,0,9.3,1.9,11.8,5.7
		c2.5,3.8,3.8,9.6,3.8,17.6c0,7.9-1.4,13.8-4.1,17.6c-2.7,3.8-6.6,5.8-11.6,5.8c-5.3,0-9.3-2-11.8-6
		C-296.5,513.4-297.7,507.6-297.7,500.1z M-289.4,500.1c0,5.2,0.6,9.2,1.7,12.1c1.1,2.8,3,4.3,5.6,4.3c2.5,0,4.4-1.3,5.5-3.9
		c1.2-2.6,1.8-6.7,1.8-12.4c0-5.2-0.6-9.2-1.7-12s-3-4.2-5.7-4.2c-2.6,0-4.4,1.3-5.5,4C-288.8,490.6-289.4,494.6-289.4,500.1z"/>
</g>
</svg>
