<?xml version="1.0" encoding="utf-8"?>
<!-- Generator: Adobe Illustrator 19.0.0, SVG Export Plug-In . SVG Version: 6.00 Build 0)  -->
<svg version="1.1" id="Layer_1" xmlns="http://www.w3.org/2000/svg" xmlns:xlink="http://www.w3.org/1999/xlink" x="0px" y="0px"
	 viewBox="-399 401 200 200" style="enable-background:new -399 401 200 200;" xml:space="preserve">
<style type="text/css">
	.st0{fill:#9E9C90;}
	.st1{fill:#E0D8C7;}
	.st2{fill:#7F7D73;}
	.st3{fill:#EFEAE1;}
	.st4{fill:#E28120;}
	.st5{opacity:0.3;}
	.st6{fill:none;stroke:#FFFFFF;stroke-width:2;stroke-linecap:round;stroke-miterlimit:10;stroke-dasharray:3.0176,6.0351;}
	.st7{fill:#FFFFFF;}
</style>
<g>
	<g>
		<g>
			<g>
				<path class="st0" d="M-278.1,496.4H-289v14.8h10.9c3.8,0,7-3.3,7-7.4C-271.1,499.7-274.2,496.4-278.1,496.4z M-278.9,508h-6.2
					v-8.4h6.2c2.2,0,4,1.9,4,4.2S-276.7,508-278.9,508z"/>
				<rect x="-289" y="508.7" class="st0" width="3.3" height="14.6"/>
				<rect x="-291.1" y="508" class="st0" width="7.7" height="3.2"/>
				<rect x="-291.1" y="514.4" class="st0" width="15.3" height="3.2"/>
			</g>
			<g>
				<path class="st1" d="M-277.4,495.7h-10.9v14.8h10.9c3.8,0,7-3.3,7-7.4S-273.5,495.7-277.4,495.7z M-278.2,507.3h-6.2v-8.4h6.2
					c2.2,0,4,1.9,4,4.2C-274.2,505.4-276,507.3-278.2,507.3z"/>
				<rect x="-288.2" y="508" class="st1" width="3.3" height="14.6"/>
				<rect x="-290.4" y="507.3" class="st1" width="7.7" height="3.2"/>
				<rect x="-290.4" y="513.7" class="st1" width="15.3" height="3.2"/>
			</g>
		</g>
	</g>
	<g>
		<g>
			<path class="st2" d="M-297.2,467.2V524h-14.2v-30.4c0-4.4-0.1-7-0.3-7.9c-0.2-0.9-0.8-1.6-1.7-2c-0.9-0.5-3.1-0.7-6.3-0.7h-1.4
				v-6.6c6.8-1.5,12-4.5,15.6-9.1L-297.2,467.2L-297.2,467.2z"/>
		</g>
	</g>
	<g>
		<path class="st3" d="M-299.4,465.9v56.7h-14.1v-30.4c0-4.4-0.1-7-0.3-7.9c-0.2-0.9-0.8-1.6-1.7-2c-0.9-0.5-3.1-0.7-6.3-0.7h-1.4
			V475c6.8-1.5,12-4.5,15.6-9.1H-299.4z"/>
	</g>
</g>
<circle class="st4" cx="-299" cy="501" r="98"/>
<g class="st5">
	<circle class="st6" cx="-299.4" cy="501" r="89.3"/>
</g>
<g>
	<path class="st7" d="M-365.3,515.3h6.7v-19l0.7-3.3l-2.3,2.8l-4.3,2.9l-2.6-3.6l10.9-8.8h3.5v28.9h6.5v5.3h-19.2V515.3z"/>
	<path class="st7" d="M-341.9,503.8c0-5.9,1-10.3,3-13.1c2-2.9,4.9-4.3,8.7-4.3c4,0,7,1.4,8.9,4.2c1.9,2.8,2.8,7.2,2.8,13.2
		c0,5.9-1,10.3-3,13.2c-2,2.9-4.9,4.3-8.7,4.3c-4,0-6.9-1.5-8.8-4.5C-341,513.7-341.9,509.4-341.9,503.8z M-335.7,503.8
		c0,3.9,0.4,6.9,1.3,9c0.8,2.1,2.2,3.2,4.2,3.2c1.9,0,3.3-1,4.2-2.9c0.9-2,1.3-5.1,1.3-9.3c0-3.9-0.4-6.9-1.2-9
		c-0.8-2.1-2.3-3.2-4.3-3.2c-1.9,0-3.3,1-4.2,3C-335.3,496.6-335.7,499.6-335.7,503.8z"/>
	<path class="st7" d="M-315.6,517.5c0-1.1,0.4-2,1.1-2.6c0.7-0.6,1.6-1,2.7-1c1.3,0,2.4,0.4,3.2,1.3c0.8,0.9,1.2,2.1,1.2,3.6
		c0,1.4-0.2,2.7-0.7,3.7c-0.4,1-1,1.9-1.7,2.6c-0.7,0.7-1.4,1.2-2.1,1.6c-0.8,0.4-1.4,0.7-2,0.9l-1.8-2.6c0.9-0.4,1.6-0.9,2.3-1.7
		c0.6-0.8,1-1.6,1.1-2.5c-0.7,0.1-1.4-0.1-2.1-0.7C-315.3,519.6-315.6,518.7-315.6,517.5z"/>
	<path class="st7" d="M-305.7,503.8c0-5.9,1-10.3,3-13.1c2-2.9,4.9-4.3,8.7-4.3c4,0,7,1.4,8.9,4.2c1.9,2.8,2.8,7.2,2.8,13.2
		c0,5.9-1,10.3-3,13.2c-2,2.9-4.9,4.3-8.7,4.3c-4,0-6.9-1.5-8.8-4.5C-304.8,513.7-305.7,509.4-305.7,503.8z M-299.5,503.8
		c0,3.9,0.4,6.9,1.3,9c0.8,2.1,2.2,3.2,4.2,3.2c1.9,0,3.3-1,4.2-2.9c0.9-2,1.3-5.1,1.3-9.3c0-3.9-0.4-6.9-1.2-9
		c-0.8-2.1-2.3-3.2-4.3-3.2c-1.9,0-3.3,1-4.2,3C-299,496.6-299.5,499.6-299.5,503.8z"/>
	<path class="st7" d="M-279.4,503.8c0-5.9,1-10.3,3-13.1c2-2.9,4.9-4.3,8.7-4.3c4,0,7,1.4,8.9,4.2c1.9,2.8,2.8,7.2,2.8,13.2
		c0,5.9-1,10.3-3,13.2c-2,2.9-4.9,4.3-8.7,4.3c-4,0-6.9-1.5-8.8-4.5C-278.5,513.7-279.4,509.4-279.4,503.8z M-273.2,503.8
		c0,3.9,0.4,6.9,1.3,9s2.2,3.2,4.2,3.2c1.9,0,3.3-1,4.2-2.9c0.9-2,1.3-5.1,1.3-9.3c0-3.9-0.4-6.9-1.2-9c-0.8-2.1-2.3-3.2-4.3-3.2
		c-1.9,0-3.3,1-4.2,3C-272.8,496.6-273.2,499.6-273.2,503.8z"/>
	<path class="st7" d="M-253.2,503.8c0-5.9,1-10.3,3-13.1c2-2.9,4.9-4.3,8.7-4.3c4,0,7,1.4,8.9,4.2c1.9,2.8,2.8,7.2,2.8,13.2
		c0,5.9-1,10.3-3,13.2c-2,2.9-4.9,4.3-8.7,4.3c-4,0-6.9-1.5-8.8-4.5C-252.2,513.7-253.2,509.4-253.2,503.8z M-246.9,503.8
		c0,3.9,0.4,6.9,1.3,9s2.2,3.2,4.2,3.2c1.9,0,3.3-1,4.2-2.9c0.9-2,1.3-5.1,1.3-9.3c0-3.9-0.4-6.9-1.2-9c-0.8-2.1-2.3-3.2-4.3-3.2
		c-1.9,0-3.3,1-4.2,3C-246.5,496.6-246.9,499.6-246.9,503.8z"/>
</g>
</svg>
