<?xml version="1.0" encoding="utf-8"?>
<!-- Generator: Adobe Illustrator 19.0.0, SVG Export Plug-In . SVG Version: 6.00 Build 0)  -->
<svg version="1.1" id="Layer_1" xmlns="http://www.w3.org/2000/svg" xmlns:xlink="http://www.w3.org/1999/xlink" x="0px" y="0px"
	 viewBox="0 0 200 200" enable-background="new 0 0 200 200" xml:space="preserve">
<ellipse id="XMLID_14_" opacity="0.1" enable-background="new    " cx="99.9" cy="190.9" rx="85.5" ry="5.2"/>
<circle id="XMLID_13_" fill="#DEA004" cx="100.7" cy="96.7" r="92.5"/>
<circle id="XMLID_12_" fill="#F8DC4A" cx="98.8" cy="99.8" r="91.1"/>
<g opacity="0.28">
	<path id="XMLID_11_" fill="#FFFFFF" d="M161.7,33.7L28.3,157.3c1.9,2.4,4,4.6,6.1,6.8L168,40.3C166,38,163.9,35.8,161.7,33.7z"/>
	<path id="XMLID_10_" fill="#FFFFFF" d="M184.6,68.8c-2.6-7.1-6-13.9-10.1-20L42.3,171.1c5.9,4.6,12.3,8.6,19.2,11.7L184.6,68.8z"/>
	<path id="XMLID_9_" fill="#FFFFFF" d="M12.6,129.2c2.6,7.7,6.3,14.9,10.7,21.5L155.5,28.3c-6.2-5-13.1-9.1-20.6-12.4L12.6,129.2z"
		/>
</g>
<g id="XMLID_8_">
	
		<circle id="XMLID_22_" fill="none" stroke="#F2C341" stroke-width="1.9286" stroke-linecap="round" stroke-linejoin="round" stroke-dasharray="1.9301,5.7904" cx="98.5" cy="100" r="83.6"/>
</g>
<circle id="XMLID_7_" fill="#C99204" cx="98.8" cy="99.6" r="76.3"/>
<circle id="XMLID_6_" fill="#DEA004" cx="98.8" cy="99.6" r="72.9"/>
<g opacity="0.16">
	<path id="XMLID_5_" fill="#FFFFFF" d="M27.6,115.4c1.8,8.2,5,15.9,9.3,22.8L142,40.8c-6.6-4.8-14-8.6-22-11L27.6,115.4z"/>
	<path id="XMLID_4_" fill="#FFFFFF" d="M148.3,46.1L41.7,144.9c1.9,2.4,3.9,4.7,6.1,6.8l106.9-99C152.7,50.4,150.6,48.2,148.3,46.1z
		"/>
	<path id="XMLID_3_" fill="#FFFFFF" d="M169.7,82.6c-1.8-7.6-4.8-14.8-8.8-21.3l-105,97.2c6.2,4.5,13.1,8.1,20.5,10.4L169.7,82.6z"
		/>
</g>
<path id="XMLID_2_" fill="#FFFFFF" d="M68.3,113.1c-0.9,12.4-2.7,14.1-14.5,15c11.8,1,13.6,2.7,14.5,15c0.9-12.4,2.7-14.1,14.5-15
	C71,127.2,69.2,125.5,68.3,113.1z"/>
<path id="XMLID_1_" fill="#FFFFFF" d="M150.5,9.8c-1.4,19.8-4.4,22.5-23.2,24.1c18.9,1.5,21.8,4.3,23.2,24.1
	c1.4-19.8,4.4-22.5,23.2-24.1C154.8,32.3,151.9,29.6,150.5,9.8z"/>
<g>
	<g>
		<g>
			<path fill="#C99204" d="M148.9,97.2H141V108h7.9c2.8,0,5.1-2.4,5.1-5.4C154,99.6,151.7,97.2,148.9,97.2z M148.3,105.7h-4.5v-6.1
				h4.5c1.6,0,2.9,1.4,2.9,3.1C151.2,104.3,149.9,105.7,148.3,105.7z"/>
			<rect x="141" y="106.1" fill="#C99204" width="2.4" height="10.6"/>
			<rect x="139.4" y="105.7" fill="#C99204" width="5.6" height="2.3"/>
			<rect x="139.4" y="110.3" fill="#C99204" width="11.1" height="2.3"/>
		</g>
		<g>
			<path fill="#F8DC4A" d="M149.4,96.7h-7.9v10.7h7.9c2.8,0,5.1-2.4,5.1-5.4C154.5,99.1,152.2,96.7,149.4,96.7z M148.8,105.1h-4.5
				V99h4.5c1.6,0,2.9,1.4,2.9,3.1S150.4,105.1,148.8,105.1z"/>
			<rect x="141.5" y="105.6" fill="#F8DC4A" width="2.4" height="10.6"/>
			<rect x="140" y="105.1" fill="#F8DC4A" width="5.6" height="2.3"/>
			<rect x="140" y="109.8" fill="#F8DC4A" width="11.1" height="2.3"/>
		</g>
	</g>
	<g>
		<path fill="#C99204" d="M53.5,105.8h8c0,1.5,0,2.4,0.1,2.8c0,0.4,0.2,0.7,0.5,1c0.3,0.3,0.7,0.4,1.2,0.4c0.4,0,0.7-0.1,1-0.4
			c0.3-0.3,0.4-0.6,0.4-1c0-0.4,0-1.2,0-2.4v-5.1c-0.4,0.9-1,1.5-1.8,1.9c-0.8,0.4-1.8,0.6-2.9,0.6c-1.5,0-2.8-0.4-3.9-1.2
			c-1.1-0.8-1.8-1.7-2.1-2.8c-0.3-1.1-0.5-2.6-0.5-4.5v-2.6c0-2.2,0.1-3.9,0.3-5c0.2-1.1,0.6-2.1,1.4-3c0.7-0.9,1.8-1.7,3.1-2.2
			c1.3-0.5,2.8-0.8,4.6-0.8c2.1,0,3.9,0.3,5.3,0.9c1.4,0.6,2.4,1.4,3.2,2.6c0.8,1.1,1.2,2.3,1.3,3.5c0.1,1.2,0.2,3.6,0.2,7.1v4.5
			c0,3.8-0.1,6.4-0.2,7.6c-0.1,1.3-0.6,2.5-1.4,3.7c-0.8,1.1-1.9,2-3.3,2.6s-3,0.9-4.8,0.9c-2.3,0-4.1-0.4-5.5-1.1s-2.5-1.7-3.1-3.1
			C53.9,109.5,53.5,107.8,53.5,105.8z M61.5,95.8c0,1.3,0.2,2.2,0.5,2.5s0.7,0.5,1.1,0.5c0.6,0,1-0.2,1.2-0.6
			c0.3-0.4,0.4-1.2,0.4-2.4V90c0-1.4-0.1-2.3-0.4-2.8c-0.2-0.4-0.7-0.7-1.2-0.7c-0.3,0-0.7,0.2-1.1,0.5c-0.4,0.3-0.6,1.2-0.6,2.7
			V95.8z"/>
		<path fill="#C99204" d="M94.4,93.1v10.7c0,2.4-0.1,4.2-0.4,5.3s-0.8,2.1-1.6,3.1c-0.8,1-1.8,1.7-3,2.1c-1.2,0.4-2.5,0.6-3.9,0.6
			c-1.9,0-3.5-0.2-4.8-0.7c-1.3-0.4-2.3-1.1-3-2.1c-0.8-0.9-1.3-1.9-1.6-3c-0.3-1-0.5-2.7-0.5-4.9V93.1c0-2.9,0.3-5.1,0.8-6.6
			c0.5-1.5,1.5-2.6,3-3.5c1.5-0.9,3.3-1.3,5.5-1.3c1.8,0,3.3,0.3,4.7,0.9c1.4,0.6,2.4,1.4,3.1,2.2c0.7,0.9,1.2,1.9,1.4,3
			S94.4,90.7,94.4,93.1z M86.4,90.4c0-1.7-0.1-2.8-0.2-3.2c-0.2-0.4-0.6-0.6-1.2-0.6c-0.6,0-1,0.2-1.2,0.7c-0.2,0.5-0.3,1.5-0.3,3.2
			v15.6c0,1.9,0.1,3,0.3,3.4s0.6,0.6,1.2,0.6c0.6,0,1-0.2,1.2-0.7c0.2-0.4,0.3-1.5,0.3-3V90.4z"/>
		<path fill="#C99204" d="M116.1,93.1v10.7c0,2.4-0.1,4.2-0.4,5.3s-0.8,2.1-1.6,3.1s-1.8,1.7-3,2.1c-1.2,0.4-2.5,0.6-3.9,0.6
			c-1.9,0-3.5-0.2-4.8-0.7c-1.3-0.4-2.3-1.1-3-2.1c-0.8-0.9-1.3-1.9-1.6-3c-0.3-1-0.5-2.7-0.5-4.9V93.1c0-2.9,0.3-5.1,0.8-6.6
			s1.5-2.6,3-3.5c1.5-0.9,3.3-1.3,5.5-1.3c1.8,0,3.3,0.3,4.7,0.9s2.4,1.4,3.1,2.2c0.7,0.9,1.2,1.9,1.4,3
			C116,88.9,116.1,90.7,116.1,93.1z M108.1,90.4c0-1.7-0.1-2.8-0.2-3.2s-0.6-0.6-1.2-0.6c-0.6,0-1,0.2-1.2,0.7s-0.3,1.5-0.3,3.2
			v15.6c0,1.9,0.1,3,0.3,3.4c0.2,0.4,0.6,0.6,1.2,0.6s1-0.2,1.2-0.7s0.3-1.5,0.3-3V90.4z"/>
		<path fill="#C99204" d="M137.8,93.1v10.7c0,2.4-0.1,4.2-0.4,5.3s-0.8,2.1-1.6,3.1s-1.8,1.7-3,2.1c-1.2,0.4-2.5,0.6-3.9,0.6
			c-1.9,0-3.5-0.2-4.8-0.7c-1.3-0.4-2.3-1.1-3-2.1c-0.8-0.9-1.3-1.9-1.6-3c-0.3-1-0.5-2.7-0.5-4.9V93.1c0-2.9,0.3-5.1,0.8-6.6
			s1.5-2.6,3-3.5c1.5-0.9,3.3-1.3,5.5-1.3c1.8,0,3.3,0.3,4.7,0.9s2.4,1.4,3.1,2.2c0.7,0.9,1.2,1.9,1.4,3
			C137.7,88.9,137.8,90.7,137.8,93.1z M129.8,90.4c0-1.7-0.1-2.8-0.2-3.2s-0.6-0.6-1.2-0.6c-0.6,0-1,0.2-1.2,0.7s-0.3,1.5-0.3,3.2
			v15.6c0,1.9,0.1,3,0.3,3.4c0.2,0.4,0.6,0.6,1.2,0.6s1-0.2,1.2-0.7s0.3-1.5,0.3-3V90.4z"/>
	</g>
	<g>
		<path fill="#F8DC4A" d="M52.3,105h8c0,1.5,0,2.4,0.1,2.8c0,0.4,0.2,0.7,0.5,1c0.3,0.3,0.7,0.4,1.2,0.4c0.4,0,0.7-0.1,1-0.4
			c0.3-0.3,0.4-0.6,0.4-1c0-0.4,0-1.2,0-2.4v-5.1c-0.4,0.9-1,1.5-1.8,1.9c-0.8,0.4-1.8,0.6-2.9,0.6c-1.5,0-2.8-0.4-3.9-1.2
			c-1.1-0.8-1.8-1.7-2.1-2.8c-0.3-1.1-0.5-2.6-0.5-4.5v-2.6c0-2.2,0.1-3.9,0.3-5c0.2-1.1,0.6-2.1,1.4-3c0.7-0.9,1.8-1.7,3.1-2.2
			c1.3-0.5,2.8-0.8,4.6-0.8c2.1,0,3.9,0.3,5.3,0.9c1.4,0.6,2.4,1.4,3.2,2.6c0.8,1.1,1.2,2.3,1.3,3.5c0.1,1.2,0.2,3.6,0.2,7.1v4.5
			c0,3.8-0.1,6.4-0.2,7.6c-0.1,1.3-0.6,2.5-1.4,3.7c-0.8,1.1-1.9,2-3.3,2.6s-3,0.9-4.8,0.9c-2.3,0-4.1-0.4-5.5-1.1s-2.5-1.7-3.1-3.1
			C52.6,108.7,52.3,107,52.3,105z M60.3,95c0,1.3,0.2,2.2,0.5,2.5s0.7,0.5,1.1,0.5c0.6,0,1-0.2,1.2-0.6c0.3-0.4,0.4-1.2,0.4-2.4
			v-5.8c0-1.4-0.1-2.3-0.4-2.8c-0.2-0.4-0.7-0.7-1.2-0.7c-0.3,0-0.7,0.2-1.1,0.5c-0.4,0.3-0.6,1.2-0.6,2.7V95z"/>
		<path fill="#F8DC4A" d="M93.1,92.3V103c0,2.4-0.1,4.2-0.4,5.3s-0.8,2.1-1.6,3.1c-0.8,1-1.8,1.7-3,2.1c-1.2,0.4-2.5,0.6-3.9,0.6
			c-1.9,0-3.5-0.2-4.8-0.7c-1.3-0.4-2.3-1.1-3-2.1c-0.8-0.9-1.3-1.9-1.6-3c-0.3-1-0.5-2.7-0.5-4.9V92.3c0-2.9,0.3-5.1,0.8-6.6
			c0.5-1.5,1.5-2.6,3-3.5c1.5-0.9,3.3-1.3,5.5-1.3c1.8,0,3.3,0.3,4.7,0.9c1.4,0.6,2.4,1.4,3.1,2.2c0.7,0.9,1.2,1.9,1.4,3
			S93.1,89.9,93.1,92.3z M85.1,89.7c0-1.7-0.1-2.8-0.2-3.2c-0.2-0.4-0.6-0.6-1.2-0.6c-0.6,0-1,0.2-1.2,0.7c-0.2,0.5-0.3,1.5-0.3,3.2
			v15.6c0,1.9,0.1,3,0.3,3.4s0.6,0.6,1.2,0.6c0.6,0,1-0.2,1.2-0.7c0.2-0.4,0.3-1.5,0.3-3V89.7z"/>
		<path fill="#F8DC4A" d="M114.9,92.3V103c0,2.4-0.1,4.2-0.4,5.3s-0.8,2.1-1.6,3.1s-1.8,1.7-3,2.1c-1.2,0.4-2.5,0.6-3.9,0.6
			c-1.9,0-3.5-0.2-4.8-0.7c-1.3-0.4-2.3-1.1-3-2.1c-0.8-0.9-1.3-1.9-1.6-3c-0.3-1-0.5-2.7-0.5-4.9V92.3c0-2.9,0.3-5.1,0.8-6.6
			s1.5-2.6,3-3.5c1.5-0.9,3.3-1.3,5.5-1.3c1.8,0,3.3,0.3,4.7,0.9s2.4,1.4,3.1,2.2c0.7,0.9,1.2,1.9,1.4,3
			C114.7,88.2,114.9,89.9,114.9,92.3z M106.9,89.7c0-1.7-0.1-2.8-0.2-3.2s-0.6-0.6-1.2-0.6c-0.6,0-1,0.2-1.2,0.7S104,88,104,89.7
			v15.6c0,1.9,0.1,3,0.3,3.4c0.2,0.4,0.6,0.6,1.2,0.6s1-0.2,1.2-0.7s0.3-1.5,0.3-3V89.7z"/>
		<path fill="#F8DC4A" d="M136.6,92.3V103c0,2.4-0.1,4.2-0.4,5.3s-0.8,2.1-1.6,3.1s-1.8,1.7-3,2.1c-1.2,0.4-2.5,0.6-3.9,0.6
			c-1.9,0-3.5-0.2-4.8-0.7c-1.3-0.4-2.3-1.1-3-2.1c-0.8-0.9-1.3-1.9-1.6-3c-0.3-1-0.5-2.7-0.5-4.9V92.3c0-2.9,0.3-5.1,0.8-6.6
			s1.5-2.6,3-3.5c1.5-0.9,3.3-1.3,5.5-1.3c1.8,0,3.3,0.3,4.7,0.9s2.4,1.4,3.1,2.2c0.7,0.9,1.2,1.9,1.4,3
			C136.5,88.2,136.6,89.9,136.6,92.3z M128.6,89.7c0-1.7-0.1-2.8-0.2-3.2s-0.6-0.6-1.2-0.6c-0.6,0-1,0.2-1.2,0.7s-0.3,1.5-0.3,3.2
			v15.6c0,1.9,0.1,3,0.3,3.4c0.2,0.4,0.6,0.6,1.2,0.6s1-0.2,1.2-0.7s0.3-1.5,0.3-3V89.7z"/>
	</g>
</g>
</svg>
