<?xml version="1.0" encoding="utf-8"?>
<!-- Generator: Adobe Illustrator 20.1.0, SVG Export Plug-In . SVG Version: 6.00 Build 0)  -->
<svg version="1.1" id="Layer_1" xmlns="http://www.w3.org/2000/svg" xmlns:xlink="http://www.w3.org/1999/xlink" x="0px" y="0px"
	 viewBox="0 0 200 200" style="enable-background:new 0 0 200 200;" xml:space="preserve">
<style type="text/css">
	.st0{opacity:0.1;enable-background:new    ;}
	.st1{opacity:0.7;fill:#666D7C;}
	.st2{opacity:0.28;}
	.st3{fill:#FFFFFF;}
	.st4{opacity:0.7;}
	.st5{fill:none;stroke:#7F8999;stroke-width:1.9286;stroke-linecap:round;stroke-linejoin:round;stroke-dasharray:1.9233,5.77;}
	.st6{opacity:0.7;fill:#4F5766;}
	.st7{opacity:0.16;}
	.st8{fill:#4F5766;}
</style>
<g>
	<ellipse class="st0" cx="98.6" cy="190.7" rx="86.4" ry="5.3"/>
	<circle class="st1" cx="99.4" cy="95.5" r="93.5"/>
	<circle class="st1" cx="97.5" cy="98.6" r="92.1"/>
	<g class="st2">
		<path class="st3" d="M161.1,31.8l-134.9,125c2,2.4,4,4.7,6.2,6.8L167.5,38.5C165.5,36.1,163.3,33.9,161.1,31.8z"/>
		<path class="st3" d="M184.2,67.3c-2.6-7.2-6-14-10.3-20.3L40.4,170.7c5.9,4.7,12.4,8.7,19.4,11.8L184.2,67.3z"/>
		<path class="st3" d="M10.4,128.4c2.7,7.8,6.3,15,10.9,21.7L154.9,26.3c-6.3-5-13.3-9.2-20.8-12.5L10.4,128.4z"/>
	</g>
	<g class="st4">
		<circle class="st5" cx="97.2" cy="98.8" r="84.5"/>
	</g>
	<circle class="st6" cx="97.5" cy="98.4" r="77.1"/>
	<circle class="st1" cx="97.5" cy="98.4" r="73.7"/>
	<g class="st7">
		<path class="st3" d="M25.5,114.4c1.8,8.3,5.1,16.1,9.4,23L141.2,39c-6.6-4.9-14.1-8.7-22.2-11.2L25.5,114.4z"/>
		<path class="st3" d="M147.6,44.3L39.7,144.2c1.9,2.4,4,4.7,6.2,6.9L153.9,51C152,48.6,149.8,46.4,147.6,44.3z"/>
		<path class="st3" d="M169.2,81.2c-1.8-7.7-4.9-14.9-8.9-21.5L54.1,158c6.2,4.6,13.2,8.1,20.7,10.6L169.2,81.2z"/>
	</g>
	<path class="st3" d="M66.7,112.1c-0.9,12.5-2.8,14.2-14.7,15.2c11.9,1,13.8,2.7,14.7,15.2c0.9-12.5,2.8-14.2,14.7-15.2
		C69.4,126.3,67.6,124.6,66.7,112.1z"/>
	<path class="st3" d="M149.7,9.7c-1.5,20-4.4,22.8-23.5,24.3c19.1,1.5,22,4.3,23.5,24.3c1.5-20,4.4-22.8,23.5-24.3
		C154.1,32.5,151.2,29.7,149.7,9.7z"/>
</g>
<g>
	<g>
		<g>
			<g>
				<path class="st8" d="M129.9,96.4H119v14.8h10.9c3.8,0,7-3.3,7-7.4C136.9,99.7,133.8,96.4,129.9,96.4z M129.1,108h-6.2v-8.4h6.2
					c2.2,0,4,1.9,4,4.2S131.3,108,129.1,108z"/>
				<rect x="119" y="108.7" class="st8" width="3.3" height="14.6"/>
				<rect x="116.9" y="108" class="st8" width="7.7" height="3.2"/>
				<rect x="116.9" y="114.4" class="st8" width="15.3" height="3.2"/>
			</g>
			<g>
				<path class="st3" d="M130.6,95.7h-10.9v14.8h10.9c3.8,0,7-3.3,7-7.4S134.5,95.7,130.6,95.7z M129.8,107.3h-6.2v-8.4h6.2
					c2.2,0,4,1.9,4,4.2S132,107.3,129.8,107.3z"/>
				<rect x="119.8" y="108" class="st3" width="3.3" height="14.6"/>
				<rect x="117.6" y="107.3" class="st3" width="7.7" height="3.2"/>
				<rect x="117.6" y="113.7" class="st3" width="15.3" height="3.2"/>
			</g>
		</g>
	</g>
	<g>
		<g>
			<path class="st8" d="M78.9,108.9h14.2c0,2.6,0,4.3,0.1,5s0.4,1.3,0.9,1.7c0.5,0.5,1.2,0.7,2.1,0.7c0.7,0,1.3-0.2,1.8-0.7
				c0.5-0.4,0.7-1,0.8-1.7c0.1-0.7,0.1-2.1,0.1-4.2v-9c-0.7,1.5-1.8,2.7-3.2,3.4c-1.4,0.8-3.1,1.1-5.2,1.1c-2.6,0-4.9-0.7-6.9-2.1
				s-3.2-3.1-3.8-5c-0.5-2-0.8-4.6-0.8-8v-4.5c0-4,0.2-6.9,0.5-8.9c0.3-1.9,1.1-3.7,2.4-5.4c1.3-1.6,3.1-2.9,5.4-3.8s5-1.4,8.1-1.4
				c3.8,0,6.9,0.5,9.3,1.6s4.3,2.6,5.6,4.5c1.3,2,2.1,4,2.3,6.2c0.2,2.2,0.3,6.4,0.3,12.6v8c0,6.8-0.1,11.3-0.3,13.5
				c-0.2,2.3-1,4.4-2.4,6.5c-1.4,2-3.4,3.6-5.8,4.6s-5.3,1.5-8.5,1.5c-4,0-7.3-0.6-9.8-1.9s-4.4-3.1-5.5-5.4
				C79.5,115.4,78.9,112.5,78.9,108.9z M93.1,91.2c0,2.4,0.3,3.9,0.9,4.4c0.6,0.6,1.3,0.8,1.9,0.8c1,0,1.7-0.4,2.2-1.1
				s0.7-2.1,0.7-4.2V80.9c0-2.5-0.2-4.1-0.6-4.9S97,74.8,96,74.8c-0.6,0-1.2,0.3-1.9,0.9c-0.7,0.6-1,2.2-1,4.8V91.2z"/>
		</g>
	</g>
	<g>
		<path class="st3" d="M76.8,107.5H91c0,2.6,0,4.3,0.1,5s0.4,1.3,0.9,1.7c0.5,0.5,1.2,0.7,2.1,0.7c0.7,0,1.3-0.2,1.8-0.7
			c0.5-0.4,0.7-1,0.8-1.7c0.1-0.7,0.1-2.1,0.1-4.2v-9c-0.7,1.5-1.8,2.7-3.2,3.4c-1.4,0.8-3.1,1.1-5.2,1.1c-2.6,0-4.9-0.7-6.9-2.1
			s-3.2-3.1-3.8-5c-0.5-2-0.8-4.6-0.8-8v-4.5c0-4,0.2-6.9,0.5-8.9c0.3-1.9,1.1-3.7,2.4-5.4c1.3-1.6,3.1-2.9,5.4-3.8s5-1.4,8.1-1.4
			c3.8,0,6.9,0.5,9.3,1.6s4.3,2.6,5.6,4.5c1.3,2,2.1,4,2.3,6.2c0.2,2.2,0.3,6.4,0.3,12.6v7.9c0,6.8-0.1,11.3-0.3,13.5
			c-0.2,2.3-1,4.4-2.4,6.5c-1.4,2-3.4,3.6-5.8,4.6s-5.3,1.5-8.5,1.5c-4,0-7.3-0.6-9.8-1.9s-4.4-3.1-5.5-5.4
			C77.3,114,76.8,111.1,76.8,107.5z M90.9,89.8c0,2.4,0.3,3.9,0.9,4.4c0.6,0.6,1.3,0.8,1.9,0.8c1,0,1.7-0.4,2.2-1.1s0.7-2.1,0.7-4.2
			V79.6c0-2.5-0.2-4.1-0.6-4.9s-1.2-1.2-2.2-1.2c-0.6,0-1.2,0.3-1.9,0.9c-0.7,0.6-1,2.2-1,4.8V89.8z"/>
	</g>
</g>
</svg>
