<?xml version="1.0" encoding="utf-8"?>
<!-- Generator: Adobe Illustrator 19.0.0, SVG Export Plug-In . SVG Version: 6.00 Build 0)  -->
<svg version="1.1" id="Layer_1" xmlns="http://www.w3.org/2000/svg" xmlns:xlink="http://www.w3.org/1999/xlink" x="0px" y="0px"
	 viewBox="50 -50 200 200" style="enable-background:new 50 -50 200 200;" xml:space="preserve">
<style type="text/css">
	.st0{opacity:0.1;enable-background:new    ;}
	.st1{fill:#D31845;}
	.st2{fill:#EA285F;}
	.st3{opacity:0.28;}
	.st4{fill:#FFFFFF;}
	.st5{fill:none;stroke:#F7578C;stroke-width:1.9286;stroke-linecap:round;stroke-linejoin:round;stroke-dasharray:1.9301,5.7904;}
	.st6{fill:#B71140;}
	.st7{opacity:0.16;}
</style>
<ellipse id="XMLID_14_" class="st0" cx="149.9" cy="140.9" rx="85.5" ry="5.2"/>
<circle id="XMLID_13_" class="st1" cx="150.7" cy="46.7" r="92.5"/>
<circle id="XMLID_12_" class="st2" cx="148.8" cy="49.8" r="91.1"/>
<g class="st3">
	<path id="XMLID_11_" class="st4" d="M211.7-16.3L78.3,107.3c1.9,2.4,4,4.6,6.1,6.8L218-9.7C216-12,213.9-14.2,211.7-16.3z"/>
	<path id="XMLID_10_" class="st4" d="M234.6,18.8c-2.6-7.1-6-13.9-10.1-20L92.3,121.1c5.9,4.6,12.3,8.6,19.2,11.7L234.6,18.8z"/>
	<path id="XMLID_9_" class="st4" d="M62.6,79.2c2.6,7.7,6.3,14.9,10.7,21.5L205.5-21.7c-6.2-5-13.1-9.1-20.6-12.4L62.6,79.2z"/>
</g>
<g id="XMLID_8_">
	<circle id="XMLID_22_" class="st5" cx="148.5" cy="50" r="83.6"/>
</g>
<circle id="XMLID_7_" class="st6" cx="148.8" cy="49.6" r="76.3"/>
<circle id="XMLID_6_" class="st1" cx="148.8" cy="49.6" r="72.9"/>
<g class="st7">
	<path id="XMLID_5_" class="st4" d="M77.6,65.4c1.8,8.2,5,15.9,9.3,22.8L192-9.2c-6.6-4.8-14-8.6-22-11L77.6,65.4z"/>
	<path id="XMLID_4_" class="st4" d="M198.3-3.9L91.7,94.9c1.9,2.4,3.9,4.7,6.1,6.8l106.9-99C202.7,0.4,200.6-1.8,198.3-3.9z"/>
	<path id="XMLID_3_" class="st4" d="M219.7,32.6c-1.8-7.6-4.8-14.8-8.8-21.3l-105,97.2c6.2,4.5,13.1,8.1,20.5,10.4L219.7,32.6z"/>
</g>
<path id="XMLID_2_" class="st4" d="M118.3,63.1c-0.9,12.4-2.7,14.1-14.5,15c11.8,1,13.6,2.7,14.5,15c0.9-12.4,2.7-14.1,14.5-15
	C121,77.2,119.2,75.5,118.3,63.1z"/>
<path id="XMLID_1_" class="st4" d="M200.5-40.2c-1.4,19.8-4.4,22.5-23.2,24.1c18.9,1.5,21.8,4.3,23.2,24.1
	c1.4-19.8,4.4-22.5,23.2-24.1C204.8-17.7,201.9-20.4,200.5-40.2z"/>
<g>
	<g>
		<g>
			<path class="st1" d="M207.9,47.2H200V58h7.9c2.8,0,5.1-2.4,5.1-5.4S210.7,47.2,207.9,47.2z M207.3,55.7h-4.5v-6.1h4.5
				c1.6,0,2.9,1.4,2.9,3.1C210.2,54.3,208.9,55.7,207.3,55.7z"/>
			<rect x="200" y="56.1" class="st1" width="2.4" height="10.6"/>
			<rect x="198.4" y="55.7" class="st1" width="5.6" height="2.3"/>
			<rect x="198.4" y="60.3" class="st1" width="11.1" height="2.3"/>
		</g>
		<g>
			<path class="st4" d="M208.4,46.7h-7.9v10.7h7.9c2.8,0,5.1-2.4,5.1-5.4C213.5,49.1,211.2,46.7,208.4,46.7z M207.8,55.1h-4.5V49
				h4.5c1.6,0,2.9,1.4,2.9,3.1S209.4,55.1,207.8,55.1z"/>
			<rect x="200.5" y="55.6" class="st4" width="2.4" height="10.6"/>
			<rect x="199" y="55.1" class="st4" width="5.6" height="2.3"/>
			<rect x="199" y="59.8" class="st4" width="11.1" height="2.3"/>
		</g>
	</g>
	<g>
		<path class="st6" d="M105.6,46.2c1.2,0.4,2.1,1.1,2.7,2c0.6,0.9,0.9,3.1,0.9,6.5c0,2.5-0.3,4.5-0.9,5.9c-0.6,1.4-1.6,2.5-3,3.2
			c-1.4,0.7-3.3,1.1-5.5,1.1c-2.5,0-4.5-0.4-6-1.3c-1.4-0.9-2.4-1.9-2.9-3.1s-0.7-3.4-0.7-6.4v-2.5h8v5.2c0,1.4,0.1,2.3,0.2,2.6
			c0.1,0.3,0.5,0.6,1.1,0.6c0.6,0,1-0.2,1.2-0.7s0.3-1.7,0.3-3.7v-2.2c0-1.2-0.1-2.1-0.4-2.7c-0.3-0.6-0.7-0.9-1.2-1.1
			s-1.6-0.3-3.1-0.3v-4.7c1.9,0,3.1-0.1,3.5-0.2s0.8-0.5,1-1s0.3-1.3,0.3-2.3v-1.8c0-1.1-0.1-1.9-0.3-2.2c-0.2-0.4-0.6-0.5-1.1-0.5
			c-0.6,0-0.9,0.2-1.1,0.6s-0.3,1.2-0.3,2.4v2.6h-8v-2.7c0-3.1,0.7-5.1,2.1-6.2c1.4-1.1,3.6-1.6,6.7-1.6c3.8,0,6.4,0.7,7.8,2.2
			c1.4,1.5,2,3.6,2,6.2c0,1.8-0.2,3.1-0.7,3.9S106.8,45.5,105.6,46.2z"/>
		<path class="st6" d="M130.9,43.1v10.7c0,2.4-0.1,4.2-0.4,5.3s-0.8,2.1-1.6,3.1c-0.8,1-1.8,1.7-3,2.1s-2.5,0.6-3.9,0.6
			c-1.9,0-3.5-0.2-4.8-0.7c-1.3-0.4-2.3-1.1-3-2.1c-0.8-0.9-1.3-1.9-1.6-3c-0.3-1-0.5-2.7-0.5-4.9V43.1c0-2.9,0.3-5.1,0.8-6.6
			s1.5-2.6,3-3.5s3.3-1.3,5.5-1.3c1.8,0,3.3,0.3,4.7,0.9c1.4,0.6,2.4,1.4,3.1,2.2c0.7,0.9,1.2,1.9,1.4,3S130.9,40.7,130.9,43.1z
			 M122.9,40.4c0-1.7-0.1-2.8-0.2-3.2c-0.2-0.4-0.6-0.6-1.2-0.6s-1,0.2-1.2,0.7s-0.3,1.5-0.3,3.2v15.6c0,1.9,0.1,3,0.3,3.4
			s0.6,0.6,1.2,0.6s1-0.2,1.2-0.7c0.2-0.4,0.3-1.5,0.3-3v-16H122.9z"/>
		<path class="st6" d="M152.6,43.1v10.7c0,2.4-0.1,4.2-0.4,5.3s-0.8,2.1-1.6,3.1c-0.8,1-1.8,1.7-3,2.1c-1.2,0.4-2.5,0.6-3.9,0.6
			c-1.9,0-3.5-0.2-4.8-0.7c-1.3-0.4-2.3-1.1-3-2.1c-0.8-0.9-1.3-1.9-1.6-3c-0.3-1-0.5-2.7-0.5-4.9V43.1c0-2.9,0.3-5.1,0.8-6.6
			s1.5-2.6,3-3.5s3.3-1.3,5.5-1.3c1.8,0,3.3,0.3,4.7,0.9s2.4,1.4,3.1,2.2c0.7,0.9,1.2,1.9,1.4,3C152.5,38.9,152.6,40.7,152.6,43.1z
			 M144.6,40.4c0-1.7-0.1-2.8-0.2-3.2c-0.1-0.4-0.6-0.6-1.2-0.6c-0.6,0-1,0.2-1.2,0.7c-0.2,0.5-0.3,1.5-0.3,3.2v15.6
			c0,1.9,0.1,3,0.3,3.4c0.2,0.4,0.6,0.6,1.2,0.6c0.6,0,1-0.2,1.2-0.7c0.2-0.5,0.3-1.5,0.3-3v-16H144.6z"/>
		<path class="st6" d="M174.4,43.1v10.7c0,2.4-0.1,4.2-0.4,5.3s-0.8,2.1-1.6,3.1c-0.8,1-1.8,1.7-3,2.1c-1.2,0.4-2.5,0.6-3.9,0.6
			c-1.9,0-3.5-0.2-4.8-0.7c-1.3-0.4-2.3-1.1-3-2.1c-0.8-0.9-1.3-1.9-1.6-3c-0.3-1-0.5-2.7-0.5-4.9V43.1c0-2.9,0.3-5.1,0.8-6.6
			s1.5-2.6,3-3.5s3.3-1.3,5.5-1.3c1.8,0,3.3,0.3,4.7,0.9s2.4,1.4,3.1,2.2c0.7,0.9,1.2,1.9,1.4,3C174.2,38.9,174.4,40.7,174.4,43.1z
			 M166.4,40.4c0-1.7-0.1-2.8-0.2-3.2c-0.1-0.4-0.6-0.6-1.2-0.6c-0.6,0-1,0.2-1.2,0.7c-0.2,0.5-0.3,1.5-0.3,3.2v15.6
			c0,1.9,0.1,3,0.3,3.4c0.2,0.4,0.6,0.6,1.2,0.6c0.6,0,1-0.2,1.2-0.7c0.2-0.5,0.3-1.5,0.3-3v-16H166.4z"/>
		<path class="st6" d="M196.1,43.1v10.7c0,2.4-0.1,4.2-0.4,5.3s-0.8,2.1-1.6,3.1s-1.8,1.7-3,2.1s-2.5,0.6-3.9,0.6
			c-1.9,0-3.5-0.2-4.8-0.7c-1.3-0.4-2.3-1.1-3-2.1c-0.8-0.9-1.3-1.9-1.6-3c-0.3-1-0.5-2.7-0.5-4.9V43.1c0-2.9,0.3-5.1,0.8-6.6
			s1.5-2.6,3-3.5s3.3-1.3,5.5-1.3c1.8,0,3.3,0.3,4.7,0.9s2.4,1.4,3.1,2.2c0.7,0.9,1.2,1.9,1.4,3C196,38.9,196.1,40.7,196.1,43.1z
			 M188.1,40.4c0-1.7-0.1-2.8-0.2-3.2s-0.6-0.6-1.2-0.6c-0.6,0-1,0.2-1.2,0.7s-0.3,1.5-0.3,3.2v15.6c0,1.9,0.1,3,0.3,3.4
			s0.6,0.6,1.2,0.6s1-0.2,1.2-0.7s0.3-1.5,0.3-3v-16H188.1z"/>
	</g>
	<g>
		<path class="st4" d="M104.3,45.4c1.2,0.4,2.1,1.1,2.7,2c0.6,0.9,0.9,3.1,0.9,6.5c0,2.5-0.3,4.5-0.9,5.9c-0.6,1.4-1.6,2.5-3,3.2
			s-3.3,1.1-5.5,1.1c-2.5,0-4.5-0.4-6-1.3c-1.4-0.9-2.4-1.9-2.9-3.1s-0.7-3.4-0.7-6.4v-2.5h8V56c0,1.4,0.1,2.3,0.2,2.6
			s0.5,0.6,1.1,0.6s1-0.2,1.2-0.7c0.2-0.5,0.3-1.7,0.3-3.7v-2.2c0-1.2-0.1-2.1-0.4-2.7c-0.3-0.6-0.7-0.9-1.2-1.1s-1.6-0.3-3.1-0.3
			v-4.7c1.9,0,3.1-0.1,3.5-0.2c0.4-0.1,0.8-0.5,1-1c0.2-0.5,0.3-1.3,0.3-2.3v-1.8c0-1.1-0.1-1.9-0.3-2.2c-0.2-0.4-0.6-0.5-1.1-0.5
			c-0.6,0-0.9,0.2-1.1,0.6S97,37.6,97,38.8v2.6h-8v-2.7c0-3.1,0.7-5.1,2.1-6.2s3.6-1.6,6.7-1.6c3.8,0,6.4,0.7,7.8,2.2s2,3.6,2,6.2
			c0,1.8-0.2,3.1-0.7,3.9C106.4,44,105.6,44.7,104.3,45.4z"/>
		<path class="st4" d="M129.7,42.3V53c0,2.4-0.1,4.2-0.4,5.3c-0.3,1.1-0.8,2.1-1.6,3.1s-1.8,1.7-3,2.1s-2.5,0.6-3.9,0.6
			c-1.9,0-3.5-0.2-4.8-0.7c-1.3-0.4-2.3-1.1-3-2.1c-0.8-0.9-1.3-1.9-1.6-3c-0.3-1-0.5-2.7-0.5-4.9V42.3c0-2.9,0.3-5.1,0.8-6.6
			s1.5-2.6,3-3.5s3.3-1.3,5.5-1.3c1.8,0,3.3,0.3,4.7,0.9c1.4,0.6,2.4,1.4,3.1,2.2c0.7,0.9,1.2,1.9,1.4,3S129.7,39.9,129.7,42.3z
			 M121.7,39.7c0-1.7-0.1-2.8-0.2-3.2c-0.2-0.4-0.6-0.6-1.2-0.6s-1,0.2-1.2,0.7s-0.3,1.5-0.3,3.2v15.6c0,1.9,0.1,3,0.3,3.4
			s0.6,0.6,1.2,0.6s1-0.2,1.2-0.7c0.2-0.4,0.3-1.5,0.3-3v-16H121.7z"/>
		<path class="st4" d="M151.4,42.3V53c0,2.4-0.1,4.2-0.4,5.3s-0.8,2.1-1.6,3.1c-0.8,1-1.8,1.7-3,2.1c-1.2,0.4-2.5,0.6-3.9,0.6
			c-1.9,0-3.5-0.2-4.8-0.7c-1.3-0.4-2.3-1.1-3-2.1c-0.8-0.9-1.3-1.9-1.6-3c-0.3-1-0.5-2.7-0.5-4.9V42.3c0-2.9,0.3-5.1,0.8-6.6
			s1.5-2.6,3-3.5s3.3-1.3,5.5-1.3c1.8,0,3.3,0.3,4.7,0.9s2.4,1.4,3.1,2.2c0.7,0.9,1.2,1.9,1.4,3C151.3,38.2,151.4,39.9,151.4,42.3z
			 M143.4,39.7c0-1.7-0.1-2.8-0.2-3.2c-0.1-0.4-0.6-0.6-1.2-0.6c-0.6,0-1,0.2-1.2,0.7c-0.2,0.5-0.3,1.5-0.3,3.2v15.6
			c0,1.9,0.1,3,0.3,3.4c0.2,0.4,0.6,0.6,1.2,0.6c0.6,0,1-0.2,1.2-0.7c0.2-0.5,0.3-1.5,0.3-3v-16H143.4z"/>
		<path class="st4" d="M173.1,42.3V53c0,2.4-0.1,4.2-0.4,5.3s-0.8,2.1-1.6,3.1c-0.8,1-1.8,1.7-3,2.1c-1.2,0.4-2.5,0.6-3.9,0.6
			c-1.9,0-3.5-0.2-4.8-0.7c-1.3-0.4-2.3-1.1-3-2.1c-0.8-0.9-1.3-1.9-1.6-3c-0.3-1-0.5-2.7-0.5-4.9V42.3c0-2.9,0.3-5.1,0.8-6.6
			s1.5-2.6,3-3.5s3.3-1.3,5.5-1.3c1.8,0,3.3,0.3,4.7,0.9s2.4,1.4,3.1,2.2c0.7,0.9,1.2,1.9,1.4,3C173,38.2,173.1,39.9,173.1,42.3z
			 M165.1,39.7c0-1.7-0.1-2.8-0.2-3.2c-0.1-0.4-0.6-0.6-1.2-0.6c-0.6,0-1,0.2-1.2,0.7c-0.2,0.5-0.3,1.5-0.3,3.2v15.6
			c0,1.9,0.1,3,0.3,3.4c0.2,0.4,0.6,0.6,1.2,0.6c0.6,0,1-0.2,1.2-0.7c0.2-0.5,0.3-1.5,0.3-3v-16H165.1z"/>
		<path class="st4" d="M194.9,42.3V53c0,2.4-0.1,4.2-0.4,5.3s-0.8,2.1-1.6,3.1s-1.8,1.7-3,2.1s-2.5,0.6-3.9,0.6
			c-1.9,0-3.5-0.2-4.8-0.7c-1.3-0.4-2.3-1.1-3-2.1c-0.8-0.9-1.3-1.9-1.6-3c-0.3-1-0.5-2.7-0.5-4.9V42.3c0-2.9,0.3-5.1,0.8-6.6
			s1.5-2.6,3-3.5s3.3-1.3,5.5-1.3c1.8,0,3.3,0.3,4.7,0.9s2.4,1.4,3.1,2.2c0.7,0.9,1.2,1.9,1.4,3C194.8,38.2,194.9,39.9,194.9,42.3z
			 M186.9,39.7c0-1.7-0.1-2.8-0.2-3.2s-0.6-0.6-1.2-0.6c-0.6,0-1,0.2-1.2,0.7S184,38,184,39.7v15.6c0,1.9,0.1,3,0.3,3.4
			s0.6,0.6,1.2,0.6s1-0.2,1.2-0.7s0.3-1.5,0.3-3V39.7H186.9z"/>
	</g>
</g>
</svg>
