<?xml version="1.0" encoding="utf-8"?>
<!-- Generator: Adobe Illustrator 20.1.0, SVG Export Plug-In . SVG Version: 6.00 Build 0)  -->
<svg version="1.1" id="Layer_1" xmlns="http://www.w3.org/2000/svg" xmlns:xlink="http://www.w3.org/1999/xlink" x="0px" y="0px"
	 viewBox="0 0 200 200" style="enable-background:new 0 0 200 200;" xml:space="preserve">
<style type="text/css">
	.st0{opacity:0.1;enable-background:new    ;}
	.st1{opacity:0.7;fill:#4F5766;}
	.st2{opacity:0.7;fill:#666D7C;}
	.st3{opacity:0.28;}
	.st4{fill:#FFFFFF;}
	.st5{opacity:0.7;}
	.st6{fill:none;stroke:#7F8999;stroke-width:1.9286;stroke-linecap:round;stroke-linejoin:round;stroke-dasharray:1.9233,5.77;}
	.st7{opacity:0.16;}
	.st8{fill:#4F5766;}
</style>
<g>
	<ellipse class="st0" cx="98.6" cy="190.7" rx="86.4" ry="5.3"/>
	<circle class="st1" cx="99.4" cy="95.5" r="93.5"/>
	<circle class="st2" cx="97.5" cy="98.6" r="92.1"/>
	<g class="st3">
		<path class="st4" d="M161.1,31.8l-134.9,125c2,2.4,4,4.7,6.2,6.8L167.5,38.5C165.5,36.1,163.3,33.9,161.1,31.8z"/>
		<path class="st4" d="M184.2,67.3c-2.6-7.2-6-14-10.3-20.3L40.4,170.7c5.9,4.7,12.4,8.7,19.4,11.8L184.2,67.3z"/>
		<path class="st4" d="M10.4,128.4c2.7,7.8,6.3,15,10.9,21.7L154.9,26.3c-6.3-5-13.3-9.2-20.8-12.5L10.4,128.4z"/>
	</g>
	<g class="st5">
		<circle class="st6" cx="97.2" cy="98.8" r="84.5"/>
	</g>
	<circle class="st1" cx="97.5" cy="98.4" r="77.1"/>
	<circle class="st2" cx="97.5" cy="98.4" r="73.7"/>
	<g class="st7">
		<path class="st4" d="M25.5,114.4c1.8,8.3,5.1,16.1,9.4,23L141.2,39c-6.6-4.9-14.1-8.7-22.2-11.2L25.5,114.4z"/>
		<path class="st4" d="M147.6,44.3L39.7,144.2c1.9,2.4,4,4.7,6.2,6.9L153.9,51C152,48.6,149.8,46.4,147.6,44.3z"/>
		<path class="st4" d="M169.2,81.2c-1.8-7.7-4.9-14.9-8.9-21.5L54.1,158c6.2,4.6,13.2,8.1,20.7,10.6L169.2,81.2z"/>
	</g>
	<path class="st4" d="M66.7,112.1c-0.9,12.5-2.8,14.2-14.7,15.2c11.9,1,13.8,2.7,14.7,15.2c0.9-12.5,2.8-14.2,14.7-15.2
		C69.4,126.3,67.6,124.6,66.7,112.1z"/>
	<path class="st4" d="M149.7,9.7c-1.5,20-4.4,22.8-23.5,24.3c19.1,1.5,22,4.3,23.5,24.3c1.5-20,4.4-22.8,23.5-24.3
		C154.1,32.5,151.2,29.7,149.7,9.7z"/>
</g>
<g>
	<g>
		<g>
			<g>
				<path class="st8" d="M124.9,95.4H114v14.8h10.9c3.8,0,7-3.3,7-7.4C131.9,98.7,128.8,95.4,124.9,95.4z M124.1,107h-6.2v-8.4h6.2
					c2.2,0,4,1.9,4,4.2S126.3,107,124.1,107z"/>
				<rect x="114" y="107.7" class="st8" width="3.3" height="14.6"/>
				<rect x="111.9" y="107" class="st8" width="7.7" height="3.2"/>
				<rect x="111.9" y="113.4" class="st8" width="15.3" height="3.2"/>
			</g>
			<g>
				<path class="st4" d="M125.6,94.7h-10.9v14.8h10.9c3.8,0,7-3.3,7-7.4S129.5,94.7,125.6,94.7z M124.8,106.3h-6.2v-8.4h6.2
					c2.2,0,4,1.9,4,4.2S127,106.3,124.8,106.3z"/>
				<rect x="114.8" y="107" class="st4" width="3.3" height="14.6"/>
				<rect x="112.6" y="106.3" class="st4" width="7.7" height="3.2"/>
				<rect x="112.6" y="112.7" class="st4" width="15.3" height="3.2"/>
			</g>
		</g>
	</g>
	<g>
		<g>
			<path class="st8" d="M111.9,81.3H97.8c0-2.6,0-4.3-0.1-5s-0.3-1.3-0.8-1.7c-0.5-0.5-1.2-0.7-2.1-0.7c-0.7,0-1.3,0.2-1.8,0.7
				c-0.5,0.4-0.7,1-0.8,1.7c-0.1,0.7-0.1,2.1-0.1,4.2v9c0.7-1.5,1.8-2.7,3.2-3.4c1.4-0.8,3.1-1.1,5.2-1.1c2.6,0,4.9,0.7,6.9,2.1
				s3.2,3.1,3.8,5s0.8,4.6,0.8,8v4.5c0,4-0.2,6.9-0.5,8.9c-0.3,1.9-1.1,3.7-2.4,5.4c-1.3,1.6-3.1,2.9-5.4,3.8s-5,1.4-8,1.4
				c-3.8,0-6.9-0.5-9.4-1.6c-2.4-1.1-4.3-2.6-5.6-4.5c-1.3-2-2.1-4-2.3-6.2c-0.2-2.2-0.3-6.4-0.3-12.7v-7.9c0-6.8,0.1-11.3,0.3-13.5
				c0.2-2.3,1-4.4,2.4-6.5c1.4-2,3.4-3.6,5.8-4.6c2.5-1,5.3-1.5,8.5-1.5c4,0,7.2,0.6,9.8,1.9c2.5,1.3,4.4,3.1,5.5,5.4
				C111.4,74.8,111.9,77.8,111.9,81.3z M97.8,99c0-2-0.2-3.4-0.7-4.1c-0.4-0.7-1.2-1.1-2.2-1.1s-1.7,0.4-2.2,1.1S92,97,92,99.1v10.3
				c0,2.5,0.2,4.1,0.6,4.9s1.2,1.2,2.2,1.2c0.6,0,1.2-0.3,1.9-0.9c0.7-0.6,1-2.2,1-4.8L97.8,99L97.8,99z"/>
		</g>
	</g>
	<g>
		<path class="st4" d="M109.8,79.9H95.6c0-2.6,0-4.3-0.1-5s-0.3-1.3-0.8-1.7c-0.5-0.5-1.2-0.7-2.1-0.7c-0.7,0-1.3,0.2-1.8,0.7
			c-0.5,0.4-0.7,1-0.8,1.7c-0.1,0.7-0.1,2.1-0.1,4.2v9c0.7-1.5,1.8-2.7,3.2-3.4c1.4-0.8,3.1-1.1,5.2-1.1c2.6,0,4.9,0.7,6.9,2.1
			s3.2,3.1,3.8,5s0.8,4.6,0.8,8v4.5c0,4-0.2,6.9-0.5,8.9c-0.3,1.9-1.1,3.7-2.4,5.4c-1.3,1.6-3.1,2.9-5.4,3.8s-5,1.4-8,1.4
			c-3.8,0-6.9-0.5-9.4-1.6c-2.4-1.1-4.3-2.6-5.6-4.5c-1.3-2-2.1-4-2.3-6.2c-0.2-2.2-0.3-6.4-0.3-12.7v-7.9c0-6.8,0.1-11.3,0.3-13.5
			c0.2-2.3,1-4.4,2.4-6.5c1.4-2,3.4-3.6,5.8-4.6c2.5-1,5.3-1.5,8.5-1.5c4,0,7.2,0.6,9.8,1.9c2.5,1.3,4.4,3.1,5.5,5.4
			C109.2,73.4,109.8,76.4,109.8,79.9z M95.6,97.6c0-2-0.2-3.4-0.7-4.1c-0.4-0.7-1.2-1.1-2.2-1.1s-1.7,0.4-2.2,1.1s-0.7,2.1-0.7,4.2
			V108c0,2.5,0.2,4.1,0.6,4.9s1.2,1.2,2.2,1.2c0.6,0,1.2-0.3,1.9-0.9c0.7-0.6,1-2.2,1-4.8L95.6,97.6L95.6,97.6z"/>
	</g>
</g>
</svg>
