<?xml version="1.0" encoding="utf-8"?>
<!-- Generator: Adobe Illustrator 19.0.0, SVG Export Plug-In . SVG Version: 6.00 Build 0)  -->
<svg version="1.1" id="Layer_1" xmlns="http://www.w3.org/2000/svg" xmlns:xlink="http://www.w3.org/1999/xlink" x="0px" y="0px"
	 viewBox="50 -50 200 200" style="enable-background:new 50 -50 200 200;" xml:space="preserve">
<style type="text/css">
	.st0{opacity:0.1;enable-background:new    ;}
	.st1{fill:#D654A8;}
	.st2{fill:#DD7CC0;}
	.st3{opacity:0.28;}
	.st4{fill:#FFFFFF;}
	.st5{fill:none;stroke:#D654A8;stroke-width:1.9286;stroke-linecap:round;stroke-linejoin:round;stroke-dasharray:1.9233,5.77;}
	.st6{fill:#C13A98;}
	.st7{opacity:0.16;}
</style>
<g>
	<ellipse class="st0" cx="148.6" cy="140.7" rx="86.4" ry="5.3"/>
	<circle class="st1" cx="149.4" cy="45.5" r="93.5"/>
	<circle class="st2" cx="147.5" cy="48.6" r="92.1"/>
	<g class="st3">
		<path class="st4" d="M211.1-18.2l-134.9,125c2,2.4,4,4.7,6.2,6.8L217.5-11.5C215.5-13.9,213.3-16.1,211.1-18.2z"/>
		<path class="st4" d="M234.2,17.3c-2.6-7.2-6-14-10.3-20.3L90.4,120.7c5.9,4.7,12.4,8.7,19.4,11.8L234.2,17.3z"/>
		<path class="st4" d="M60.4,78.4c2.7,7.8,6.3,15,10.9,21.7L204.9-23.7c-6.3-5-13.3-9.2-20.8-12.5L60.4,78.4z"/>
	</g>
	<g>
		<circle class="st5" cx="147.2" cy="48.8" r="84.5"/>
	</g>
	<circle class="st6" cx="147.5" cy="48.4" r="77.1"/>
	<circle class="st1" cx="147.5" cy="48.4" r="73.7"/>
	<g class="st7">
		<path class="st4" d="M75.5,64.4c1.8,8.3,5.1,16.1,9.4,23L191.2-11c-6.6-4.9-14.1-8.7-22.2-11.2L75.5,64.4z"/>
		<path class="st4" d="M197.6-5.7L89.7,94.2c1.9,2.4,4,4.7,6.2,6.9L203.9,1C202-1.4,199.8-3.6,197.6-5.7z"/>
		<path class="st4" d="M219.2,31.2c-1.8-7.7-4.9-14.9-8.9-21.5L104.1,108c6.2,4.6,13.2,8.1,20.7,10.6L219.2,31.2z"/>
	</g>
	<path class="st4" d="M116.7,62.1c-0.9,12.5-2.8,14.2-14.7,15.2c11.9,1,13.8,2.7,14.7,15.2c0.9-12.5,2.8-14.2,14.7-15.2
		C119.4,76.3,117.6,74.6,116.7,62.1z"/>
	<path class="st4" d="M199.7-40.3c-1.5,20-4.4,22.8-23.5,24.3c19.1,1.5,22,4.3,23.5,24.3c1.5-20,4.4-22.8,23.5-24.3
		C204.1-17.5,201.2-20.3,199.7-40.3z"/>
</g>
<g>
	<g>
		<g>
			<g>
				<path class="st6" d="M187.9,44.4H177v14.8h10.9c3.8,0,7-3.3,7-7.4C194.9,47.7,191.8,44.4,187.9,44.4z M187.1,56h-6.2v-8.4h6.2
					c2.2,0,4,1.9,4,4.2S189.3,56,187.1,56z"/>
				<rect x="177" y="56.7" class="st6" width="3.3" height="14.6"/>
				<rect x="174.9" y="56" class="st6" width="7.7" height="3.2"/>
				<rect x="174.9" y="62.4" class="st6" width="15.3" height="3.2"/>
			</g>
			<g>
				<path class="st4" d="M188.6,43.7h-10.9v14.8h10.9c3.8,0,7-3.3,7-7.4S192.5,43.7,188.6,43.7z M187.8,55.3h-6.2v-8.4h6.2
					c2.2,0,4,1.9,4,4.2S190,55.3,187.8,55.3z"/>
				<rect x="177.8" y="56" class="st4" width="3.3" height="14.6"/>
				<rect x="175.6" y="55.3" class="st4" width="7.7" height="3.2"/>
				<rect x="175.6" y="61.7" class="st4" width="15.3" height="3.2"/>
			</g>
		</g>
	</g>
	<g>
		<g>
			<path class="st6" d="M141.4,35.6h-11c0-2,0-3.3-0.1-3.9c0-0.5-0.3-1-0.7-1.3c-0.4-0.4-0.9-0.5-1.6-0.5c-0.6,0-1,0.2-1.4,0.5
				s-0.6,0.8-0.6,1.3c0.1,0.5,0,1.6,0,3.3v7c0.6-1.2,1.4-2.1,2.5-2.7c1.1-0.6,2.4-0.9,4-0.9c2,0,3.8,0.5,5.3,1.6s2.5,2.4,2.9,3.9
				c0.4,1.5,0.6,3.6,0.6,6.2v3.5c0,3.1-0.1,5.4-0.4,6.9c-0.2,1.5-0.9,2.9-1.9,4.2c-1,1.3-2.4,2.3-4.2,3s-3.9,1.1-6.2,1.1
				c-3,0-5.4-0.4-7.3-1.2c-1.9-0.8-3.3-2-4.4-3.5c-1-1.5-1.6-3.1-1.8-4.8c-0.2-1.7-0.3-5-0.3-9.8v-6.1c0-5.2,0.1-8.7,0.2-10.5
				c0.2-1.8,0.8-3.4,1.9-5s2.6-2.8,4.5-3.6c1.9-0.8,4.1-1.2,6.6-1.2c3.1,0,5.6,0.5,7.6,1.5s3.4,2.4,4.2,4.2
				C141,30.6,141.4,32.8,141.4,35.6z M130.4,49.3c0-1.6-0.2-2.6-0.5-3.2c-0.3-0.6-0.9-0.9-1.7-0.9c-0.8,0-1.3,0.3-1.7,0.8
				c-0.4,0.6-0.5,1.6-0.5,3.3v8c0,1.9,0.2,3.2,0.5,3.8c0.3,0.6,0.9,0.9,1.7,0.9c0.5,0,1-0.2,1.5-0.7s0.8-1.7,0.8-3.7v-8.3H130.4z"/>
			<path class="st6" d="M169.2,23.9v7h-13.6v7.5c1.7-2,3.9-3,6.6-3c3,0,5.3,0.8,6.9,2.5c1.6,1.7,2.3,5,2.3,9.8V54
				c0,3.1-0.1,5.4-0.4,6.9s-0.9,2.8-1.9,4.1s-2.3,2.2-4.1,2.9s-3.9,1-6.4,1c-2.8,0-5.3-0.5-7.5-1.5c-2.2-1-3.7-2.5-4.6-4.4
				c-0.9-2-1.4-5-1.4-9.1v-2.4h11v2.7c0,2.8,0.1,4.9,0.3,6.1c0.2,1.2,0.9,1.8,2.1,1.8c0.5,0,1-0.2,1.3-0.5s0.5-0.7,0.5-1.1
				s0.1-2.1,0.1-5.2v-8.7c0-1.6-0.2-2.8-0.5-3.4c-0.3-0.6-0.9-0.9-1.7-0.9c-0.5,0-0.9,0.2-1.3,0.5c-0.3,0.3-0.6,0.6-0.7,1
				c-0.1,0.4-0.2,1.2-0.2,2.5h-10.8l0.5-22.2h23.5V23.9z"/>
		</g>
	</g>
	<g>
		<path class="st4" d="M139.8,34.5h-11c0-2,0-3.3-0.1-3.9c0-0.5-0.3-1-0.7-1.3c-0.4-0.4-0.9-0.5-1.6-0.5c-0.6,0-1,0.2-1.4,0.5
			s-0.6,0.8-0.6,1.3c-0.1,0.5-0.1,1.6-0.1,3.3v7c0.6-1.2,1.4-2.1,2.5-2.7s2.4-0.9,4-0.9c2,0,3.8,0.5,5.3,1.6s2.5,2.4,2.9,3.9
			s0.6,3.6,0.6,6.2v3.5c0,3.1-0.1,5.4-0.4,6.9c-0.2,1.5-0.9,2.9-1.9,4.2c-1,1.3-2.4,2.3-4.2,3c-1.8,0.7-3.9,1.1-6.2,1.1
			c-3,0-5.4-0.4-7.3-1.2c-1.9-0.8-3.3-2-4.4-3.5c-1-1.5-1.6-3.1-1.8-4.8c-0.2-1.7-0.3-5-0.3-9.8v-6.1c0-5.2,0.1-8.7,0.2-10.5
			c0.2-1.8,0.8-3.4,1.9-5s2.6-2.8,4.5-3.6c1.9-0.8,4.1-1.2,6.6-1.2c3.1,0,5.6,0.5,7.6,1.5s3.4,2.4,4.2,4.2
			C139.3,29.5,139.8,31.8,139.8,34.5z M128.8,48.3c0-1.6-0.2-2.6-0.5-3.2s-0.9-0.9-1.7-0.9c-0.8,0-1.3,0.3-1.7,0.8
			c-0.4,0.6-0.5,1.6-0.5,3.3v8c0,1.9,0.2,3.2,0.5,3.8c0.3,0.6,0.9,0.9,1.7,0.9c0.5,0,1-0.2,1.5-0.7s0.8-1.7,0.8-3.7v-8.3H128.8z"/>
		<path class="st4" d="M167.5,22.8v7h-13.6v7.5c1.7-2,3.9-3,6.6-3c3,0,5.3,0.8,6.9,2.5c1.6,1.7,2.3,5,2.3,9.8v6.3
			c0,3.1-0.1,5.4-0.4,6.9s-0.9,2.8-1.9,4.1s-2.3,2.2-4.1,2.9c-1.8,0.7-3.9,1-6.4,1c-2.8,0-5.3-0.5-7.5-1.5c-2.2-1-3.7-2.5-4.6-4.4
			c-0.9-2-1.4-5-1.4-9.1v-2.4h11v2.7c0,2.8,0.1,4.9,0.3,6.1c0.2,1.2,0.9,1.8,2.1,1.8c0.5,0,1-0.2,1.3-0.5s0.5-0.7,0.5-1.1
			s0.1-2.1,0.1-5.2v-8.7c0-1.6-0.2-2.8-0.5-3.4c-0.3-0.6-0.9-0.9-1.7-0.9c-0.5,0-0.9,0.2-1.3,0.5c-0.3,0.3-0.6,0.6-0.7,1
			c-0.1,0.4-0.1,1.2-0.1,2.5h-10.9L144,23h23.5V22.8z"/>
	</g>
</g>
</svg>
