<?xml version="1.0" encoding="utf-8"?>
<!-- Generator: Adobe Illustrator 19.0.0, SVG Export Plug-In . SVG Version: 6.00 Build 0)  -->
<svg version="1.1" id="Layer_1" xmlns="http://www.w3.org/2000/svg" xmlns:xlink="http://www.w3.org/1999/xlink" x="0px" y="0px"
	 viewBox="-399 401 200 200" style="enable-background:new -399 401 200 200;" xml:space="preserve">
<style type="text/css">
	.st0{fill:#9E9C90;}
	.st1{fill:#E0D8C7;}
	.st2{fill:#7F7D73;}
	.st3{fill:#EFEAE1;}
	.st4{fill:#E5AA1F;}
	.st5{opacity:0.3;}
	.st6{fill:none;stroke:#FFFFFF;stroke-width:2;stroke-linecap:round;stroke-miterlimit:10;stroke-dasharray:3.0176,6.0351;}
	.st7{fill:#FFFFFF;}
</style>
<g>
	<g>
		<g>
			<g>
				<path class="st0" d="M-278.1,496.4H-289v14.8h10.9c3.8,0,7-3.3,7-7.4C-271.1,499.7-274.2,496.4-278.1,496.4z M-278.9,508h-6.2
					v-8.4h6.2c2.2,0,4,1.9,4,4.2S-276.7,508-278.9,508z"/>
				<rect x="-289" y="508.7" class="st0" width="3.3" height="14.6"/>
				<rect x="-291.1" y="508" class="st0" width="7.7" height="3.2"/>
				<rect x="-291.1" y="514.4" class="st0" width="15.3" height="3.2"/>
			</g>
			<g>
				<path class="st1" d="M-277.4,495.7h-10.9v14.8h10.9c3.8,0,7-3.3,7-7.4S-273.5,495.7-277.4,495.7z M-278.2,507.3h-6.2v-8.4h6.2
					c2.2,0,4,1.9,4,4.2C-274.2,505.4-276,507.3-278.2,507.3z"/>
				<rect x="-288.2" y="508" class="st1" width="3.3" height="14.6"/>
				<rect x="-290.4" y="507.3" class="st1" width="7.7" height="3.2"/>
				<rect x="-290.4" y="513.7" class="st1" width="15.3" height="3.2"/>
			</g>
		</g>
	</g>
	<g>
		<g>
			<path class="st2" d="M-297.2,467.2V524h-14.2v-30.4c0-4.4-0.1-7-0.3-7.9c-0.2-0.9-0.8-1.6-1.7-2c-0.9-0.5-3.1-0.7-6.3-0.7h-1.4
				v-6.6c6.8-1.5,12-4.5,15.6-9.1L-297.2,467.2L-297.2,467.2z"/>
		</g>
	</g>
	<g>
		<path class="st3" d="M-299.4,465.9v56.7h-14.1v-30.4c0-4.4-0.1-7-0.3-7.9c-0.2-0.9-0.8-1.6-1.7-2c-0.9-0.5-3.1-0.7-6.3-0.7h-1.4
			V475c6.8-1.5,12-4.5,15.6-9.1H-299.4z"/>
	</g>
</g>
<circle class="st4" cx="-299" cy="501" r="98"/>
<g class="st5">
	<circle class="st6" cx="-299.4" cy="501" r="89.3"/>
</g>
<g>
	<path class="st7" d="M-355.2,515.4h7.8v-22.1l0.8-3.8l-2.7,3.3l-5,3.4l-3.1-4.2l12.8-10.3h4.1v33.7h7.6v6.2h-22.3V515.4z"/>
	<path class="st7" d="M-317.9,515.9c2.5,0,4.3-0.6,5.7-1.8c1.3-1.2,2-2.8,2-4.9c0-2.2-0.8-3.9-2.3-4.9c-1.5-1-3.7-1.6-6.6-1.6
		l-4.4,0.2v-20.5h19.3v6.8h-13v7.6l2.3-0.2c1.8,0.1,3.5,0.4,5,1c1.5,0.6,2.7,1.4,3.8,2.5c1,1.1,1.8,2.4,2.4,3.9
		c0.6,1.5,0.8,3.2,0.8,5.1c0,2.2-0.4,4.1-1.1,5.8c-0.7,1.7-1.8,3.1-3.1,4.2s-2.9,2-4.7,2.5c-1.8,0.6-3.8,0.8-5.9,0.8
		c-1.7,0-3.3-0.1-4.8-0.4c-1.5-0.3-2.8-0.7-3.8-1.1l2-6c0.9,0.4,1.8,0.7,2.8,0.9C-320.6,515.8-319.3,515.9-317.9,515.9z"/>
	<path class="st7" d="M-297.3,501.9c0-6.9,1.2-12,3.5-15.3c2.4-3.3,5.7-5,10.1-5c4.7,0,8.2,1.7,10.4,5c2.2,3.3,3.3,8.4,3.3,15.4
		c0,6.9-1.2,12-3.6,15.4c-2.4,3.4-5.8,5-10.2,5c-4.7,0-8.1-1.8-10.3-5.3C-296.2,513.6-297.3,508.5-297.3,501.9z M-290,501.9
		c0,4.6,0.5,8.1,1.5,10.6c1,2.5,2.6,3.7,4.9,3.7c2.2,0,3.8-1.1,4.8-3.4s1.5-5.9,1.5-10.9c0-4.5-0.5-8-1.5-10.5s-2.6-3.7-5-3.7
		c-2.2,0-3.9,1.2-4.8,3.5C-289.5,493.6-290,497.1-290,501.9z"/>
	<path class="st7" d="M-266.7,501.9c0-6.9,1.2-12,3.5-15.3c2.4-3.3,5.7-5,10.1-5c4.7,0,8.2,1.7,10.4,5c2.2,3.3,3.3,8.4,3.3,15.4
		c0,6.9-1.2,12-3.6,15.4c-2.4,3.4-5.8,5-10.2,5c-4.7,0-8.1-1.8-10.3-5.3C-265.6,513.6-266.7,508.5-266.7,501.9z M-259.4,501.9
		c0,4.6,0.5,8.1,1.5,10.6c1,2.5,2.6,3.7,4.9,3.7c2.2,0,3.8-1.1,4.8-3.4c1-2.3,1.5-5.9,1.5-10.9c0-4.5-0.5-8-1.5-10.5
		c-1-2.5-2.6-3.7-5-3.7c-2.2,0-3.9,1.2-4.8,3.5C-258.9,493.6-259.4,497.1-259.4,501.9z"/>
</g>
</svg>
