<?xml version="1.0" encoding="utf-8"?>
<!-- Generator: Adobe Illustrator 19.0.0, SVG Export Plug-In . SVG Version: 6.00 Build 0)  -->
<svg version="1.1" id="Layer_1" xmlns="http://www.w3.org/2000/svg" xmlns:xlink="http://www.w3.org/1999/xlink" x="0px" y="0px"
	 viewBox="50 -50 200 200" style="enable-background:new 50 -50 200 200;" xml:space="preserve">
<style type="text/css">
	.st0{fill:#3E92ED;}
	.st1{opacity:0.3;}
	.st2{fill:none;stroke:#FFFFFF;stroke-width:2;stroke-linecap:round;stroke-miterlimit:10;stroke-dasharray:3.0176,6.0351;}
	.st3{fill:#FFFFFF;}
</style>
<circle class="st0" cx="150" cy="50" r="98"/>
<g class="st1">
	<circle class="st2" cx="149.6" cy="50" r="89.3"/>
</g>
<g>
	<path class="st3" d="M112.3,65.5c2.6,0,4.7-0.7,6-2.1c1.4-1.4,2.1-3.1,2.1-5.1c0-2.4-0.7-4.2-2.2-5.4c-1.5-1.2-3.7-1.7-6.8-1.7
		h-4.6v-4.4l7.7-10.6l3.6-2.9l-5.1,0.6h-10.8v-7h24.4v4.5l-9,12.1l-2.8,1.7v0.3l2.7-0.4c1.5,0.1,2.9,0.5,4.3,1
		c1.3,0.6,2.5,1.4,3.5,2.4s1.8,2.3,2.4,3.9c0.6,1.5,0.9,3.3,0.9,5.3c0,2.5-0.4,4.7-1.2,6.5c-0.8,1.8-2,3.4-3.5,4.6
		c-1.5,1.2-3.2,2.2-5.2,2.8s-4.1,0.9-6.3,0.9c-1.9,0-3.8-0.2-5.8-0.5s-3.6-0.8-4.9-1.5l2.2-6.9c1.1,0.6,2.3,1,3.7,1.3
		C109.1,65.3,110.6,65.5,112.3,65.5z"/>
	<path class="st3" d="M134.4,49.1c0-7.9,1.3-13.7,4-17.5s6.5-5.7,11.6-5.7c5.4,0,9.3,1.9,11.8,5.7c2.5,3.8,3.8,9.6,3.8,17.6
		c0,7.9-1.4,13.8-4.1,17.6s-6.6,5.8-11.6,5.8c-5.3,0-9.3-2-11.8-6C135.7,62.4,134.4,56.6,134.4,49.1z M142.7,49.1
		c0,5.2,0.6,9.2,1.7,12.1c1.1,2.8,3,4.3,5.6,4.3c2.5,0,4.4-1.3,5.5-3.9c1.2-2.6,1.8-6.7,1.8-12.4c0-5.2-0.6-9.2-1.7-12
		s-3-4.2-5.7-4.2c-2.6,0-4.4,1.3-5.5,4C143.3,39.6,142.7,43.6,142.7,49.1z"/>
	<path class="st3" d="M169.4,49.1c0-7.9,1.3-13.7,4-17.5s6.5-5.7,11.6-5.7c5.4,0,9.3,1.9,11.8,5.7c2.5,3.8,3.8,9.6,3.8,17.6
		c0,7.9-1.4,13.8-4.1,17.6s-6.6,5.8-11.6,5.8c-5.3,0-9.3-2-11.8-6C170.7,62.4,169.4,56.6,169.4,49.1z M177.7,49.1
		c0,5.2,0.6,9.2,1.7,12.1c1.1,2.8,3,4.3,5.6,4.3c2.5,0,4.4-1.3,5.5-3.9c1.2-2.6,1.8-6.7,1.8-12.4c0-5.2-0.6-9.2-1.7-12
		s-3-4.2-5.7-4.2c-2.6,0-4.4,1.3-5.5,4C178.3,39.6,177.7,43.6,177.7,49.1z"/>
</g>
</svg>
