<?xml version="1.0" encoding="utf-8"?>
<!-- Generator: Adobe Illustrator 20.1.0, SVG Export Plug-In . SVG Version: 6.00 Build 0)  -->
<svg version="1.1" id="Layer_1" xmlns="http://www.w3.org/2000/svg" xmlns:xlink="http://www.w3.org/1999/xlink" x="0px" y="0px"
	 viewBox="0 0 200 200" style="enable-background:new 0 0 200 200;" xml:space="preserve">
<style type="text/css">
	.st0{fill:#9E9C90;}
	.st1{fill:#E0D8C7;}
	.st2{fill:#7F7D73;}
	.st3{fill:#EFEAE1;}
	.st4{fill:#E81F84;}
	.st5{opacity:0.3;}
	.st6{fill:none;stroke:#FFFFFF;stroke-width:2;stroke-linecap:round;stroke-miterlimit:10;stroke-dasharray:3.0176,6.0351;}
	.st7{fill:#FFFFFF;}
</style>
<g>
	<g>
		<g>
			<g>
				<path class="st0" d="M120.9,95.4H110v14.8h10.9c3.8,0,7-3.3,7-7.4C127.9,98.7,124.8,95.4,120.9,95.4z M120.1,107h-6.2v-8.4h6.2
					c2.2,0,4,1.9,4,4.2S122.3,107,120.1,107z"/>
				<rect x="110" y="107.7" class="st0" width="3.3" height="14.6"/>
				<rect x="107.9" y="107" class="st0" width="7.7" height="3.2"/>
				<rect x="107.9" y="113.4" class="st0" width="15.3" height="3.2"/>
			</g>
			<g>
				<path class="st1" d="M121.6,94.7h-10.9v14.8h10.9c3.8,0,7-3.3,7-7.4S125.5,94.7,121.6,94.7z M120.8,106.3h-6.2v-8.4h6.2
					c2.2,0,4,1.9,4,4.2C124.8,104.4,123,106.3,120.8,106.3z"/>
				<rect x="110.8" y="107" class="st1" width="3.3" height="14.6"/>
				<rect x="108.6" y="106.3" class="st1" width="7.7" height="3.2"/>
				<rect x="108.6" y="112.7" class="st1" width="15.3" height="3.2"/>
			</g>
		</g>
	</g>
	<g>
		<g>
			<path class="st2" d="M101.8,66.2V123H87.6V92.6c0-4.4-0.1-7-0.3-7.9c-0.2-0.9-0.8-1.6-1.7-2c-0.9-0.5-3.1-0.7-6.3-0.7h-1.4v-6.6
				c6.8-1.5,12-4.5,15.6-9.1L101.8,66.2L101.8,66.2z"/>
		</g>
	</g>
	<g>
		<path class="st3" d="M99.6,64.9v56.7H85.5V91.2c0-4.4-0.1-7-0.3-7.9c-0.2-0.9-0.8-1.6-1.7-2c-0.9-0.5-3.1-0.7-6.3-0.7h-1.4V74
			c6.8-1.5,12-4.5,15.6-9.1H99.6z"/>
	</g>
</g>
<circle class="st4" cx="100" cy="100" r="98"/>
<g class="st5">
	<circle class="st6" cx="99.6" cy="100" r="89.3"/>
</g>
<g>
	<path class="st7" d="M67.2,90.8c0-2.2,0.3-4.2,1-6s1.6-3.4,2.9-4.7c1.3-1.3,2.8-2.3,4.6-3.1c1.8-0.7,3.9-1.1,6.2-1.1
		c4.8,0,8.6,1.4,11.4,4.3s4.1,7.1,4.1,12.6c0,4.9-0.6,9.2-1.9,12.8c-1.3,3.6-2.9,6.6-5.1,9c-2.1,2.4-4.6,4.3-7.3,5.5
		c-2.8,1.3-5.7,2-8.8,2.3l-1.8-6.5c2.3-0.3,4.4-0.9,6.3-1.7c1.8-0.9,3.4-1.9,4.7-3.2c1.3-1.3,2.4-2.7,3.2-4.3
		c0.8-1.6,1.4-3.3,1.8-5.2c-1,1.1-2.1,1.9-3.3,2.3c-1.2,0.4-2.7,0.6-4.7,0.6c-1.6,0-3.2-0.3-4.8-0.8c-1.6-0.6-3-1.4-4.3-2.5
		s-2.3-2.6-3.1-4.3C67.6,95.2,67.2,93.2,67.2,90.8z M75.3,90.4c0,2.4,0.7,4.3,2,5.5c1.4,1.2,3.1,1.9,5.1,1.9c1.7,0,3.2-0.3,4.3-0.8
		c1.1-0.6,2-1.2,2.6-2c0.1-0.9,0.2-1.7,0.2-2.6c0-1.2-0.1-2.4-0.4-3.5c-0.3-1.2-0.8-2.2-1.4-3.1s-1.4-1.6-2.4-2.1s-2.1-0.8-3.4-0.8
		c-2.1,0-3.7,0.7-4.9,2C75.9,86.1,75.3,88,75.3,90.4z"/>
	<path class="st7" d="M101.9,99.1c0-7.9,1.3-13.7,4-17.5s6.5-5.7,11.6-5.7c5.4,0,9.3,1.9,11.8,5.7c2.5,3.8,3.8,9.6,3.8,17.6
		c0,7.9-1.4,13.8-4.1,17.6s-6.6,5.8-11.6,5.8c-5.3,0-9.3-2-11.8-6C103.2,112.4,101.9,106.6,101.9,99.1z M110.2,99.1
		c0,5.2,0.6,9.2,1.7,12.1c1.1,2.8,3,4.3,5.6,4.3c2.5,0,4.4-1.3,5.5-3.9c1.2-2.6,1.8-6.7,1.8-12.4c0-5.2-0.6-9.2-1.7-12
		s-3-4.2-5.7-4.2c-2.6,0-4.4,1.3-5.5,4C110.8,89.6,110.2,93.6,110.2,99.1z"/>
</g>
</svg>
