<?xml version="1.0" encoding="utf-8"?>
<!-- Generator: Adobe Illustrator 19.0.0, SVG Export Plug-In . SVG Version: 6.00 Build 0)  -->
<svg version="1.1" id="Layer_1" xmlns="http://www.w3.org/2000/svg" xmlns:xlink="http://www.w3.org/1999/xlink" x="0px" y="0px"
	 viewBox="50 -50 200 200" style="enable-background:new 50 -50 200 200;" xml:space="preserve">
<style type="text/css">
	.st0{fill:#3E92ED;}
	.st1{opacity:0.3;}
	.st2{fill:none;stroke:#FFFFFF;stroke-width:2;stroke-linecap:round;stroke-miterlimit:10;stroke-dasharray:3.0176,6.0351;}
	.st3{fill:#FFFFFF;}
</style>
<circle class="st0" cx="148" cy="50" r="98"/>
<g class="st1">
	<circle class="st2" cx="147.6" cy="50" r="89.3"/>
</g>
<g>
	<path class="st3" d="M125.2,37.7c0,2.2-0.4,4.4-1.2,6.6c-0.8,2.2-1.8,4.4-3,6.5s-2.6,4.2-4,6.2c-1.5,2-2.9,3.8-4.3,5.5l-3.4,2.6
		v0.3l4.6-0.9h12.3v7H99.3v-4.3c1-1.1,2.2-2.3,3.5-3.7s2.6-2.9,3.9-4.5s2.6-3.3,3.8-5c1.2-1.7,2.3-3.4,3.3-5.2c1-1.7,1.8-3.4,2.3-5
		c0.6-1.6,0.9-3.2,0.9-4.6c0-1.7-0.5-3.2-1.5-4.3c-1-1.1-2.6-1.7-4.8-1.7c-1.4,0-2.8,0.3-4.2,0.9c-1.4,0.6-2.6,1.3-3.6,2.2l-3.3-5.9
		c1.7-1.4,3.6-2.5,5.7-3.3s4.6-1.2,7.5-1.2c1.8,0,3.5,0.3,5.1,0.8c1.5,0.5,2.9,1.3,4,2.2c1.1,1,2,2.2,2.6,3.7
		C124.9,34.1,125.2,35.8,125.2,37.7z"/>
	<path class="st3" d="M132.4,49.1c0-7.9,1.3-13.7,4-17.5s6.5-5.7,11.6-5.7c5.4,0,9.3,1.9,11.8,5.7c2.5,3.8,3.8,9.6,3.8,17.6
		c0,7.9-1.4,13.8-4.1,17.6s-6.6,5.8-11.6,5.8c-5.3,0-9.3-2-11.8-6C133.7,62.4,132.4,56.6,132.4,49.1z M140.7,49.1
		c0,5.2,0.6,9.2,1.7,12.1c1.1,2.8,3,4.3,5.6,4.3c2.5,0,4.4-1.3,5.5-3.9c1.2-2.6,1.8-6.7,1.8-12.4c0-5.2-0.6-9.2-1.7-12
		s-3-4.2-5.7-4.2c-2.6,0-4.4,1.3-5.5,4C141.3,39.6,140.7,43.6,140.7,49.1z"/>
	<path class="st3" d="M167.4,49.1c0-7.9,1.3-13.7,4-17.5s6.5-5.7,11.6-5.7c5.4,0,9.3,1.9,11.8,5.7c2.5,3.8,3.8,9.6,3.8,17.6
		c0,7.9-1.4,13.8-4.1,17.6c-2.7,3.8-6.6,5.8-11.6,5.8c-5.3,0-9.3-2-11.8-6C168.7,62.4,167.4,56.6,167.4,49.1z M175.7,49.1
		c0,5.2,0.6,9.2,1.7,12.1c1.1,2.8,3,4.3,5.6,4.3c2.5,0,4.4-1.3,5.5-3.9c1.2-2.6,1.8-6.7,1.8-12.4c0-5.2-0.6-9.2-1.7-12
		s-3-4.2-5.7-4.2c-2.6,0-4.4,1.3-5.5,4C176.3,39.6,175.7,43.6,175.7,49.1z"/>
</g>
</svg>
