<?xml version="1.0" encoding="utf-8"?>
<!-- Generator: Adobe Illustrator 20.1.0, SVG Export Plug-In . SVG Version: 6.00 Build 0)  -->
<svg version="1.1" id="Layer_1" xmlns="http://www.w3.org/2000/svg" xmlns:xlink="http://www.w3.org/1999/xlink" x="0px" y="0px"
	 viewBox="0 0 200 200" style="enable-background:new 0 0 200 200;" xml:space="preserve">
<style type="text/css">
	.st0{fill:#9E9C90;}
	.st1{fill:#E0D8C7;}
	.st2{fill:#7F7D73;}
	.st3{fill:#EFEAE1;}
	.st4{fill:#2D97C1;}
	.st5{fill:#FFFFFF;}
</style>
<g>
	<g>
		<g>
			<g>
				<path class="st0" d="M120.9,95.4H110v14.8h10.9c3.8,0,7-3.3,7-7.4C127.9,98.7,124.8,95.4,120.9,95.4z M120.1,107h-6.2v-8.4h6.2
					c2.2,0,4,1.9,4,4.2S122.3,107,120.1,107z"/>
				<rect x="110" y="107.7" class="st0" width="3.3" height="14.6"/>
				<rect x="107.9" y="107" class="st0" width="7.7" height="3.2"/>
				<rect x="107.9" y="113.4" class="st0" width="15.3" height="3.2"/>
			</g>
			<g>
				<path class="st1" d="M121.6,94.7h-10.9v14.8h10.9c3.8,0,7-3.3,7-7.4S125.5,94.7,121.6,94.7z M120.8,106.3h-6.2v-8.4h6.2
					c2.2,0,4,1.9,4,4.2C124.8,104.4,123,106.3,120.8,106.3z"/>
				<rect x="110.8" y="107" class="st1" width="3.3" height="14.6"/>
				<rect x="108.6" y="106.3" class="st1" width="7.7" height="3.2"/>
				<rect x="108.6" y="112.7" class="st1" width="15.3" height="3.2"/>
			</g>
		</g>
	</g>
	<g>
		<g>
			<path class="st2" d="M101.8,66.2V123H87.6V92.6c0-4.4-0.1-7-0.3-7.9c-0.2-0.9-0.8-1.6-1.7-2c-0.9-0.5-3.1-0.7-6.3-0.7h-1.4v-6.6
				c6.8-1.5,12-4.5,15.6-9.1L101.8,66.2L101.8,66.2z"/>
		</g>
	</g>
	<g>
		<path class="st3" d="M99.6,64.9v56.7H85.5V91.2c0-4.4-0.1-7-0.3-7.9c-0.2-0.9-0.8-1.6-1.7-2c-0.9-0.5-3.1-0.7-6.3-0.7h-1.4V74
			c6.8-1.5,12-4.5,15.6-9.1H99.6z"/>
	</g>
</g>
<circle class="st4" cx="100" cy="100" r="98"/>
<g>
	<path class="st5" d="M58.8,59.7c-23.3,23.3-23.3,61.3,0,84.6c23.3,23.3,61.3,23.3,84.6,0c23.3-23.3,23.3-61.3,0-84.6
		C120.1,36.4,82.1,36.4,58.8,59.7z M136.8,137.7c-19.7,19.7-51.8,19.7-71.5,0c-19.7-19.7-19.7-51.8,0-71.5
		c19.7-19.7,51.8-19.7,71.5,0C156.6,85.9,156.6,118,136.8,137.7z M128.1,125.6c0.7,1.7,0,3.7-1.8,4.4c-1.7,0.7-3.7,0-4.4-1.8
		c-3.3-7.5-11-12.4-19.6-12.4c-8.9,0-16.6,4.9-19.8,12.4c-0.5,1.3-1.8,2.1-3.1,2.1c-0.4,0-0.9-0.1-1.3-0.3c-1.7-0.7-2.5-2.7-1.8-4.4
		c4.2-10.1,14.4-16.6,26-16.6C113.6,109.1,123.8,115.6,128.1,125.6z M78.7,87.4l-2.9,0.9c-1.9,0.6-3.9-0.4-4.5-2.3
		c-0.6-1.9,0.4-3.9,2.3-4.5L88,76.9c1.9-0.6,3.9,0.4,4.5,2.3c0.5,1.7-0.2,3.5-1.8,4.2c2.6,2.7,2.6,7.1-0.1,9.8
		c-2.7,2.7-7.2,2.7-9.9,0C79.1,91.6,78.4,89.4,78.7,87.4z M131.9,85.8c-0.6,1.9-2.6,2.9-4.5,2.3l-2.9-0.9c0.3,2.1-0.4,4.2-2,5.8
		c-2.7,2.7-7.2,2.7-9.9,0c-2.7-2.7-2.7-7-0.1-9.8c-1.5-0.8-2.3-2.6-1.8-4.2c0.6-1.9,2.6-2.9,4.5-2.3l14.3,4.6
		C131.5,81.9,132.5,83.9,131.9,85.8z"/>
</g>
<g>
	<g>
		<path class="st5" d="M22.2,105.7c0.7,4.7,1.2,6.9,2.5,11.2c-3.3,1-4.9,1.5-8.2,2.6c-0.4-1.2-0.5-1.8-0.8-3
			c2.8-0.8,4.1-1.1,6.9-1.9c-0.6-2.2-0.8-3.3-1.3-5.6c-2.8,0.6-4.2,0.8-7,1.4c-0.2-1.3-0.4-1.9-0.6-3.3
			C17.1,106.5,18.8,106.3,22.2,105.7z"/>
		<path class="st5" d="M20.2,120.8c0.5-0.2,1.1-0.1,1.7,0.1c0.6,0.3,1.2,0.7,1.7,1.4c0.5,0.7,1,1.5,1.3,2.4c0.6,1.4,0.8,2.7,0.6,3.8
			c-0.2,1.1-0.6,1.9-1.5,2.3c-0.8,0.4-1.8,0.3-2.7-0.4c-1-0.7-1.8-1.8-2.4-3.3c-0.4-0.9-0.6-1.9-0.6-2.8c-0.1-0.9,0.1-1.7,0.4-2.3
			C19,121.4,19.5,121,20.2,120.8z M21,123.6c-0.6,0.2-0.9,0.6-1.1,1.2c-0.1,0.6-0.1,1.2,0.2,1.9c0.3,0.7,0.7,1.2,1.1,1.5
			c0.5,0.3,1,0.3,1.6,0.1c0.6-0.3,0.9-0.7,1-1.2s0-1.2-0.2-1.8s-0.6-1.1-1.1-1.5C22.1,123.4,21.6,123.3,21,123.6z"/>
		<path class="st5" d="M27.7,131.3c1,2,1.5,3,2.7,4.9c0.6,1,0.9,1.8,1,2.4s-0.1,1.1-0.6,1.4c-0.3,0.2-0.6,0.2-1,0.1
			s-0.7-0.4-1.1-0.7c0.3,0.6,0.4,1.2,0.3,1.6c-0.1,0.4-0.2,0.8-0.5,1c-0.4,0.3-0.9,0.3-1.5-0.1c-0.6-0.3-1.2-1-1.7-1.9
			c-1.3-2.2-2-3.4-3.1-5.7C24.4,133.1,25.5,132.5,27.7,131.3z M26.7,134.9c0.3,0.6,0.5,0.9,0.8,1.5c0.4,0.7,0.8,1.2,1,1.4
			c0.3,0.2,0.6,0.3,0.8,0.1c0.2-0.1,0.3-0.4,0.2-0.7c-0.1-0.3-0.3-0.9-0.7-1.6c-0.3-0.6-0.5-0.9-0.8-1.5
			C27.5,134.4,27.2,134.6,26.7,134.9z M24.4,136.2c0.4,0.8,0.6,1.1,1,1.9c0.4,0.7,0.7,1.1,1,1.3c0.3,0.2,0.5,0.3,0.8,0.1
			c0.3-0.2,0.3-0.4,0.2-0.8c-0.1-0.4-0.4-1.1-1-2.1c-0.3-0.5-0.4-0.7-0.7-1.2C25.2,135.7,25,135.9,24.4,136.2z"/>
		<path class="st5" d="M33.2,147.8c0.6,0.9,0.8,1.3,1.4,2.1c-0.7,0.1-1.4,0.1-2.1-0.3c-0.7-0.4-1.4-1-2.1-1.8
			c-1.1-1.4-1.5-2.7-1.4-3.7c0.1-0.9,0.5-1.6,1.2-2.1c0.9-0.6,1.8-0.7,2.7-0.4c0.9,0.3,1.8,1,2.5,1.9c0.8,1.1,1.3,2.1,1.3,3.1
			c0,1-0.4,1.9-1.4,2.7c-1.7-1.9-2.4-2.9-4-5c-0.4,0.3-0.6,0.7-0.5,1.2c0,0.5,0.2,1,0.6,1.4c0.2,0.3,0.5,0.5,0.8,0.7
			C32.6,147.9,32.9,147.9,33.2,147.8z M34.6,146.9c0.4-0.3,0.5-0.7,0.5-1.1c0-0.4-0.2-0.8-0.5-1.3c-0.3-0.4-0.7-0.7-1.1-0.8
			c-0.4-0.1-0.8-0.1-1.2,0.2C33.2,145.1,33.7,145.7,34.6,146.9z"/>
		<path class="st5" d="M38.5,152.9c0.3-0.3,0.5-0.5,0.8-0.8c0.3,0.3,0.5,0.5,0.7,0.6c0.2,0.1,0.4,0.2,0.6,0.2c0.2,0,0.4,0,0.5-0.2
			c0.1-0.1,0.2-0.3,0.2-0.6c0-0.3-0.2-0.5-0.5-0.8c-0.2-0.2-0.5-0.4-0.7-0.5c-0.2-0.1-0.6-0.1-1,0c-0.5-0.7-0.7-1-1.2-1.7
			c0.5-0.2,1.2-0.2,1.8,0.1c0.7,0.3,1.3,0.8,1.9,1.4c0.8,0.8,1.2,1.5,1.4,2.1c0.2,0.7,0.1,1.2-0.2,1.6c-0.2,0.2-0.5,0.3-0.8,0.3
			c-0.3,0-0.8-0.2-1.3-0.4c0.4,0.6,0.7,1.1,0.7,1.5c0.1,0.4,0,0.8-0.3,1.1c-0.3,0.4-0.9,0.4-1.6,0.2c-0.8-0.2-1.6-0.8-2.5-1.8
			c-1.6-1.7-2.1-3.1-1.6-4.3c0.7,0.6,1.1,0.9,1.8,1.5c-0.2,0.7,0,1.4,0.6,2c0.3,0.3,0.7,0.6,1,0.6s0.6,0,0.7-0.1
			c0.2-0.2,0.2-0.4,0.1-0.7c-0.1-0.3-0.3-0.6-0.7-1C38.7,153.1,38.6,153,38.5,152.9z"/>
		<path class="st5" d="M46.8,161.1c0.7,0.7,1.1,1,1.8,1.7c-0.6,0.3-1.3,0.4-2.1,0.2s-1.5-0.6-2.4-1.2c-1.3-1-2-2.1-2.1-3.2
			c-0.1-0.8,0.2-1.6,0.7-2.2c0.7-0.8,1.5-1.1,2.5-1s1.9,0.5,2.8,1.2c1,0.8,1.7,1.7,1.9,2.6s0,1.9-0.8,2.9c-2-1.4-3-2.2-4.9-3.8
			c-0.3,0.4-0.4,0.8-0.3,1.3c0.1,0.5,0.4,0.9,0.9,1.2c0.3,0.2,0.6,0.4,0.9,0.4C46.2,161.3,46.5,161.3,46.8,161.1z M48,159.8
			c0.3-0.4,0.4-0.8,0.2-1.2c-0.1-0.4-0.4-0.8-0.7-1.1c-0.4-0.3-0.8-0.5-1.3-0.5c-0.4,0-0.8,0.1-1.1,0.5
			C46.2,158.5,46.8,159,48,159.8z"/>
		<path class="st5" d="M52,159.5c2.6,1.8,4,2.7,6.8,4.2c-0.3,0.5-0.4,0.7-0.7,1.2c-1-0.6-1.5-0.8-2.5-1.4c-1,1.7-1.6,2.5-2.6,4.2
			c-0.9-0.5-1.3-0.8-2.1-1.3c1.1-1.6,1.6-2.5,2.7-4.1c-1-0.6-1.4-0.9-2.4-1.6C51.5,160.2,51.6,160,52,159.5z"/>
		<path class="st5" d="M64.2,166.6c1.8,0.9,2.8,1.2,4.7,2c1,0.4,1.7,0.8,2,1.2s0.5,0.9,0.3,1.4c-0.1,0.3-0.4,0.6-0.7,0.7
			c-0.4,0.1-0.8,0.2-1.2,0.1c0.6,0.3,0.9,0.7,1.1,1c0.2,0.4,0.2,0.7,0.1,1c-0.2,0.5-0.6,0.7-1.2,0.9c-0.6,0.1-1.4,0-2.4-0.4
			c-2.2-0.8-3.3-1.3-5.5-2.3C62.6,170,63.1,168.8,64.2,166.6z M65.3,169.9c0.6,0.2,0.9,0.4,1.4,0.6c0.7,0.3,1.2,0.4,1.6,0.4
			c0.4,0,0.6-0.1,0.7-0.4c0.1-0.2,0-0.5-0.2-0.7s-0.7-0.5-1.4-0.7c-0.6-0.2-0.8-0.3-1.4-0.6C65.6,169.1,65.5,169.3,65.3,169.9z
			 M64.2,172.3c0.7,0.3,1.1,0.5,1.8,0.7c0.7,0.3,1.2,0.4,1.5,0.4c0.3,0,0.6-0.1,0.7-0.4c0.1-0.3,0-0.5-0.3-0.8s-0.9-0.5-1.9-0.9
			c-0.5-0.2-0.7-0.3-1.1-0.5C64.6,171.4,64.5,171.7,64.2,172.3z"/>
		<path class="st5" d="M85.5,175c-0.9,0-1.4-0.1-2.4-0.1c0-0.3-0.1-0.6-0.4-0.8c-0.2-0.2-0.6-0.4-1-0.5c-0.6-0.1-1.1-0.1-1.5,0.1
			c-0.4,0.2-0.7,0.6-0.9,1.3c-0.2,0.7-0.1,1.3,0.2,1.6c0.3,0.4,0.7,0.6,1.4,0.8c0.5,0.1,0.9,0.1,1.2,0c0.3-0.1,0.6-0.4,0.8-0.8
			c0.9,0.3,1.4,0.4,2.3,0.7c-0.4,0.7-0.9,1.2-1.7,1.4c-0.8,0.2-1.8,0.3-3,0c-1.4-0.3-2.4-0.8-3-1.6c-0.6-0.8-0.8-1.6-0.5-2.6
			c0.3-1,0.9-1.7,1.8-2c0.9-0.4,2-0.4,3.2-0.1c1,0.2,1.8,0.5,2.4,1C85,173.7,85.4,174.3,85.5,175z"/>
		<path class="st5" d="M88.2,173.5c3.1,0.4,4.6,0.5,7.7,0.7c-0.1,2.5-0.2,3.7-0.3,6.2c-1,0-1.5-0.1-2.5-0.1c0.1-1.9,0.2-2.9,0.4-4.9
			c-1.3-0.1-1.9-0.1-3.2-0.3c-0.1,1.1-0.2,1.7-0.3,2.8c-0.1,0.7-0.3,1.2-0.5,1.4s-0.6,0.4-0.9,0.5c-0.3,0.1-0.8,0-1.5,0
			c-0.4-0.1-0.9-0.2-1.5-0.3c0.1-0.5,0.1-0.7,0.2-1.2c0.1,0,0.2,0,0.4,0.1c0.3,0,0.4,0.1,0.6,0.1c0.3,0,0.5,0,0.6-0.1
			s0.2-0.5,0.3-1.2C87.9,175.6,88,174.9,88.2,173.5z"/>
		<path class="st5" d="M103.3,178.4c1,0.1,1.5,0.1,2.4,0.1c-0.3,0.6-0.7,1.1-1.4,1.5s-1.5,0.5-2.6,0.6c-1.6,0-2.9-0.3-3.6-1
			c-0.6-0.6-0.9-1.3-0.9-2.2c0-1,0.4-1.8,1.2-2.4c0.8-0.6,1.7-0.9,2.9-0.9c1.3,0,2.3,0.2,3.1,0.8c0.8,0.6,1.2,1.5,1.3,2.7
			c-2.4,0.2-3.6,0.2-6.1,0.2c0,0.5,0.2,0.9,0.6,1.1s0.9,0.4,1.4,0.4c0.4,0,0.7-0.1,1-0.2C103,179,103.2,178.7,103.3,178.4z
			 M103.4,176.7c0-0.5-0.2-0.8-0.6-1.1c-0.3-0.2-0.8-0.3-1.2-0.3c-0.5,0-0.9,0.1-1.3,0.4c-0.3,0.3-0.5,0.6-0.5,1.1
			C101.3,176.8,102,176.8,103.4,176.7z"/>
		<path class="st5" d="M115.8,179c-2.8,0.5-4.2,0.7-7.1,1c0.1,0.7,0.1,1,0.2,1.6c-0.8,0.1-1.2,0.1-2.1,0.2c-0.1-1.2-0.1-1.8-0.2-3
			c0.4,0,0.6,0,1-0.1c0.4-0.3,0.7-0.9,0.9-1.6s0.2-1.8,0.1-3.4c2.8-0.3,4.2-0.5,7-1c0.4,1.9,0.6,2.9,1,4.8c0.4-0.1,0.6-0.1,1-0.2
			c0.3,1.2,0.4,1.8,0.6,2.9c-0.8,0.2-1.2,0.2-2,0.4C116,180,115.9,179.7,115.8,179z M114.1,178c-0.2-1.4-0.4-2.1-0.6-3.5
			c-1.1,0.2-1.7,0.3-2.8,0.4c0.1,1.7-0.1,2.9-0.7,3.6C111.7,178.3,112.5,178.2,114.1,178z"/>
		<path class="st5" d="M117.2,172.4c1-0.2,1.4-0.3,2.4-0.5c1.3,1.5,1.9,2.3,3.2,3.8c0.4-1.9,0.5-2.9,0.8-4.8
			c0.9-0.3,1.4-0.4,2.3-0.7c-0.4,2.7-0.6,4-1.2,6.6c-0.1,0.5-0.2,0.7-0.3,1.2c-0.1,0.4-0.2,0.7-0.4,1c-0.1,0.2-0.3,0.4-0.5,0.6
			c-0.2,0.2-0.5,0.4-0.9,0.5c-0.4,0.2-0.8,0.3-1.3,0.4c-0.5,0.1-1,0.2-1.4,0.2c-0.2-0.5-0.3-0.7-0.5-1.2c0.4,0,0.8-0.1,1.1-0.2
			c0.6-0.1,1-0.3,1.2-0.6s0.4-0.6,0.4-1C120,175.7,119,174.6,117.2,172.4z"/>
		<path class="st5" d="M127.3,169.7c0.9-0.3,1.3-0.5,2.2-0.8c0.4,0.9,0.6,1.4,0.9,2.3c0.7-0.3,1.1-0.4,1.8-0.7
			c-0.2-0.8,0-1.5,0.4-2.3c0.5-0.7,1.3-1.3,2.4-1.8c1.1-0.5,2.2-0.7,3.1-0.6c1,0.1,1.7,0.7,2.3,1.6c0.3,0.6,0.4,1.1,0.4,1.7
			c-0.1,0.6-0.3,1.1-0.7,1.7c-0.4,0.5-1.2,1.1-2.1,1.5c-1.4,0.6-2.5,0.8-3.4,0.6s-1.5-0.6-1.8-1.2c-0.7,0.3-1.1,0.4-1.8,0.7
			c0.4,0.9,0.5,1.3,0.9,2.2c-0.9,0.4-1.4,0.5-2.4,0.8C128.6,173.2,128.1,172,127.3,169.7z M135.5,167.6c-0.6,0.3-1,0.6-1.1,1
			c-0.2,0.4-0.1,0.9,0.2,1.5c0.3,0.8,0.7,1.2,1.2,1.3s1,0,1.6-0.2c0.6-0.3,0.9-0.6,1.1-1c0.1-0.4,0.1-0.9-0.2-1.5
			c-0.4-0.7-0.8-1.1-1.2-1.2C136.6,167.3,136.1,167.3,135.5,167.6z"/>
		<path class="st5" d="M140.5,163.8c0.8-0.4,1.1-0.6,1.9-1.1c1,1.7,1.6,2.5,2.6,4.2c1-0.6,1.5-0.9,2.4-1.5c-1.1-1.6-1.6-2.5-2.7-4.1
			c0.7-0.5,1.1-0.7,1.8-1.2c1.1,1.6,1.7,2.4,2.8,4c1-0.7,1.4-1,2.4-1.7c-1.2-1.6-1.8-2.4-3-3.9c0.7-0.5,1-0.8,1.7-1.3
			c1.2,1.5,1.8,2.3,3.1,3.9c0.3-0.3,0.5-0.4,0.8-0.6c0.8,0.9,1.1,1.4,1.9,2.3c-0.7,0.5-1,0.8-1.6,1.3c-0.4-0.5-0.6-0.8-1-1.3
			c-3.8,2.9-5.8,4.2-9.9,6.5C142.3,167.1,141.7,166,140.5,163.8z"/>
		<path class="st5" d="M152.3,155.7c0.7-0.6,1-0.9,1.7-1.5c1.1,1.2,1.6,1.8,2.6,2.9c0.1-2.2,0.1-3.3,0-5.4c0.7-0.7,1-1,1.7-1.7
			c1.8,1.7,2.7,2.6,4.5,4.4c-0.7,0.7-1,1.1-1.7,1.8c-1.1-1.1-1.7-1.7-2.8-2.9c0,2.2,0,3.3-0.1,5.6c-0.7,0.7-1.1,1-1.9,1.6
			C154.7,158.5,153.9,157.6,152.3,155.7z"/>
		<path class="st5" d="M160,148.2c0.6-0.7,0.9-1,1.5-1.8c1.2,1,1.8,1.5,3,2.6c-0.2-2.2-0.3-3.3-0.7-5.5c0.6-0.8,0.9-1.2,1.4-1.9
			c2,1.5,3,2.2,5.1,3.7c-0.6,0.8-0.9,1.2-1.5,2c-1.3-1-1.9-1.5-3.2-2.5c0.3,2.2,0.4,3.4,0.6,5.7c-0.6,0.8-1,1.1-1.6,1.9
			C162.8,150.8,161.9,149.9,160,148.2z M161.7,142.2c0.3-0.4,0.4-0.6,0.7-0.9c0.4,0.4,0.6,0.9,0.5,1.4s-0.3,1.2-0.8,1.8
			c-0.5,0.6-1,1-1.5,1.1c-0.5,0.2-1,0.1-1.5-0.2c0.3-0.3,0.4-0.5,0.7-0.9c0.2,0.2,0.5,0.2,0.8,0.1s0.5-0.3,0.8-0.7
			c0.3-0.4,0.5-0.7,0.5-1S161.9,142.4,161.7,142.2z"/>
		<path class="st5" d="M169.3,135.3c0.5-0.8,0.7-1.2,1.1-2.1c0.3,0.2,0.5,0.3,0.8,0.4c-0.1-0.4-0.2-0.9-0.1-1.5s0.2-1.1,0.5-1.7
			c0.5-1,1.1-1.8,2-2.3c0.8-0.5,1.7-0.6,2.6-0.1c1,0.4,1.5,1.2,1.7,2.2c0.2,1,0,2.1-0.5,3.2c-0.3,0.5-0.5,1-0.9,1.3s-0.8,0.7-1.3,1
			c1.1,0.6,1.7,0.9,2.8,1.5c-0.5,1-0.8,1.5-1.4,2.5C173.8,137.9,172.3,137.1,169.3,135.3z M173.2,134.5c0.6,0.3,1.2,0.4,1.7,0.2
			c0.5-0.2,0.9-0.7,1.2-1.3c0.3-0.6,0.4-1.1,0.3-1.6s-0.5-0.9-1.1-1.2c-0.6-0.3-1.1-0.3-1.6-0.1c-0.5,0.2-0.8,0.6-1.1,1.2
			c-0.3,0.6-0.4,1.1-0.3,1.6S172.7,134.2,173.2,134.5z"/>
		<path class="st5" d="M176.8,123.6c-0.4,0.9-0.7,1.3-1.1,2.2c-0.5-0.5-0.7-1.1-0.7-1.8c0-0.7,0.2-1.7,0.6-3c0.4-1.1,0.7-2,1.1-2.5
			s0.7-0.9,1-1c0.3-0.2,0.8-0.1,1.5,0.1c0.7,0.2,1.1,0.4,1.8,0.6c0.5,0.2,0.9,0.2,1.2,0.2c0.3,0,0.6-0.1,0.9-0.3
			c-0.3,1.1-0.5,1.7-0.8,2.8c-0.1,0-0.3,0.1-0.5,0.1c-0.1,0-0.2,0-0.2,0c0.1,0.6,0.1,1.1,0.1,1.7c-0.1,0.6-0.2,1.2-0.4,1.8
			c-0.4,1.1-0.9,1.8-1.4,2.3c-0.6,0.5-1.1,0.6-1.6,0.4c-0.3-0.1-0.6-0.4-0.7-0.8c-0.2-0.4-0.2-0.8-0.2-1.3c0-0.5,0.2-1.3,0.4-2.2
			c0.3-1.3,0.4-2.2,0.5-2.7c-0.1,0-0.1,0-0.2-0.1c-0.3-0.1-0.6,0-0.8,0.2c-0.2,0.2-0.4,0.7-0.7,1.3c-0.2,0.5-0.2,0.8-0.2,1.1
			C176.5,123.1,176.6,123.4,176.8,123.6z M179.3,120.6c0,0.4-0.1,0.9-0.3,1.7c-0.2,0.8-0.2,1.3-0.2,1.5c0,0.4,0.1,0.6,0.4,0.7
			c0.2,0.1,0.5,0,0.7-0.2s0.5-0.5,0.6-1c0.2-0.5,0.2-1,0.2-1.5c0-0.4-0.1-0.7-0.3-0.8c-0.1-0.1-0.4-0.2-0.7-0.4
			C179.5,120.6,179.4,120.6,179.3,120.6z"/>
		<path class="st5" d="M182,112c-0.4-0.1-0.6-0.1-1-0.2c0.1-0.5,0.2-0.9,0.2-1.1c0-0.2,0-0.5-0.1-0.7c-0.1-0.2-0.2-0.4-0.4-0.4
			c-0.2,0-0.4,0.1-0.6,0.3s-0.4,0.6-0.5,1.1c-0.1,0.4-0.1,0.7-0.1,1c0,0.3,0.2,0.6,0.5,1c-0.3,0.9-0.5,1.4-0.9,2.3
			c-0.5-0.4-0.7-1-0.8-1.8c-0.1-0.8,0-1.7,0.2-2.8c0.3-1.3,0.6-2.2,1.1-2.9c0.5-0.7,0.9-1,1.5-0.9c0.3,0.1,0.6,0.3,0.7,0.6
			c0.2,0.4,0.3,0.9,0.3,1.6c0.3-0.8,0.6-1.4,0.9-1.8c0.3-0.4,0.7-0.5,1-0.5c0.5,0.1,0.8,0.6,1,1.5s0.2,2.2-0.2,3.7
			c-0.6,2.7-1.6,4.2-2.8,4.4c0.2-1.1,0.2-1.6,0.4-2.7c0.7-0.3,1.2-0.9,1.4-1.9c0.1-0.6,0.1-1,0-1.4c-0.1-0.4-0.2-0.6-0.5-0.6
			c-0.2,0-0.5,0.1-0.7,0.4c-0.2,0.3-0.4,0.8-0.5,1.3C182.1,111.7,182,111.8,182,112z"/>
	</g>
</g>
</svg>
