<?xml version="1.0" encoding="utf-8"?>
<!-- Generator: Adobe Illustrator 19.0.0, SVG Export Plug-In . SVG Version: 6.00 Build 0)  -->
<svg version="1.1" id="Layer_1" xmlns="http://www.w3.org/2000/svg" xmlns:xlink="http://www.w3.org/1999/xlink" x="0px" y="0px"
	 viewBox="50 -50 200 200" style="enable-background:new 50 -50 200 200;" xml:space="preserve">
<style type="text/css">
	.st0{fill:#9E9C90;}
	.st1{fill:#E0D8C7;}
	.st2{fill:#7F7D73;}
	.st3{fill:#EFEAE1;}
	.st4{fill:#3E92ED;}
	.st5{opacity:0.3;}
	.st6{fill:none;stroke:#FFFFFF;stroke-width:2;stroke-linecap:round;stroke-miterlimit:10;stroke-dasharray:3.0176,6.0351;}
	.st7{fill:#FFFFFF;}
</style>
<g>
	<g>
		<g>
			<g>
				<path class="st0" d="M170.9,45.4H160v14.8h10.9c3.8,0,7-3.3,7-7.4C177.9,48.7,174.8,45.4,170.9,45.4z M170.1,57h-6.2v-8.4h6.2
					c2.2,0,4,1.9,4,4.2S172.3,57,170.1,57z"/>
				<rect x="160" y="57.7" class="st0" width="3.3" height="14.6"/>
				<rect x="157.9" y="57" class="st0" width="7.7" height="3.2"/>
				<rect x="157.9" y="63.4" class="st0" width="15.3" height="3.2"/>
			</g>
			<g>
				<path class="st1" d="M171.6,44.7h-10.9v14.8h10.9c3.8,0,7-3.3,7-7.4S175.5,44.7,171.6,44.7z M170.8,56.3h-6.2v-8.4h6.2
					c2.2,0,4,1.9,4,4.2C174.8,54.4,173,56.3,170.8,56.3z"/>
				<rect x="160.8" y="57" class="st1" width="3.3" height="14.6"/>
				<rect x="158.6" y="56.3" class="st1" width="7.7" height="3.2"/>
				<rect x="158.6" y="62.7" class="st1" width="15.3" height="3.2"/>
			</g>
		</g>
	</g>
	<g>
		<g>
			<path class="st2" d="M151.8,16.2V73h-14.2V42.6c0-4.4-0.1-7-0.3-7.9c-0.2-0.9-0.8-1.6-1.7-2c-0.9-0.5-3.1-0.7-6.3-0.7h-1.4v-6.6
				c6.8-1.5,12-4.5,15.6-9.1L151.8,16.2L151.8,16.2z"/>
		</g>
	</g>
	<g>
		<path class="st3" d="M149.6,14.9v56.7h-14.1V41.2c0-4.4-0.1-7-0.3-7.9c-0.2-0.9-0.8-1.6-1.7-2c-0.9-0.5-3.1-0.7-6.3-0.7h-1.4V24
			c6.8-1.5,12-4.5,15.6-9.1H149.6z"/>
	</g>
</g>
<circle class="st4" cx="150" cy="50" r="98"/>
<g class="st5">
	<circle class="st6" cx="149.6" cy="50" r="89.3"/>
</g>
<g>
	<path class="st7" d="M103.3,64.6h8.9V39.3l1-4.4l-3.1,3.8l-5.7,3.9l-3.5-4.8L115.5,26h4.7v38.5h8.7v7h-25.5v-6.9H103.3z"/>
	<path class="st7" d="M145.9,65.1c2.8,0,5-0.7,6.5-2c1.5-1.4,2.2-3.2,2.2-5.6c0-2.6-0.9-4.4-2.6-5.6c-1.8-1.2-4.2-1.8-7.5-1.8
		l-5.1,0.2V26.9h22v7.8h-14.8v8.6l2.6-0.3c2.1,0.1,4,0.5,5.7,1.2s3.1,1.6,4.3,2.8c1.2,1.2,2.1,2.7,2.8,4.4c0.6,1.7,1,3.7,1,5.8
		c0,2.5-0.4,4.7-1.3,6.7c-0.9,1.9-2,3.5-3.6,4.8c-1.5,1.3-3.3,2.2-5.3,2.9c-2,0.6-4.3,1-6.7,1c-1.9,0-3.7-0.2-5.5-0.5
		s-3.2-0.8-4.4-1.3l2.2-6.9c1,0.4,2.1,0.8,3.2,1C142.9,65,144.3,65.1,145.9,65.1z"/>
	<path class="st7" d="M169.4,49.1c0-7.9,1.3-13.7,4-17.5s6.5-5.7,11.6-5.7c5.4,0,9.3,1.9,11.8,5.7c2.5,3.8,3.8,9.6,3.8,17.6
		c0,7.9-1.4,13.8-4.1,17.6c-2.7,3.8-6.6,5.8-11.6,5.8c-5.3,0-9.3-2-11.8-6C170.7,62.4,169.4,56.6,169.4,49.1z M177.7,49.1
		c0,5.2,0.6,9.2,1.7,12.1c1.1,2.8,3,4.3,5.6,4.3c2.5,0,4.4-1.3,5.5-3.9c1.2-2.6,1.8-6.7,1.8-12.4c0-5.2-0.6-9.2-1.7-12
		s-3-4.2-5.7-4.2c-2.6,0-4.4,1.3-5.5,4C178.3,39.6,177.7,43.6,177.7,49.1z"/>
</g>
</svg>
